<?xml version="1.0" encoding="UTF-8"?>
<svg id="Lag_1" data-name="Lag 1" xmlns="http://www.w3.org/2000/svg" viewBox="0 0 106.85 136.2">
  <defs>
    <style>
      .cls-1 {
        fill: #cf732c;
        stroke-width: 0px;
      }
    </style>
  </defs>
  <path class="cls-1" d="m7.96,58.66c-4.28-11.23-6.89-24.17-3.3-35.96C7.83,12.31,16.76,3.94,27.89,3.22s19.97,6.89,23.7,16.79c1,2.65,1.67,5.45,1.88,8.28.2,2.65.44,6.28-1.03,8.63-.45.72-1.46,1.62-2.39,1.12s-.8-2.7-.84-3.66c-.14-2.79.11-5.6.72-8.33,2.31-10.29,9.71-20.13,20.39-22.53s21.03,2.59,26.58,11.27c3.57,5.57,5.22,11.81,6.14,18.31s1.04,13.67.47,20.48c-.8,9.71-2.98,19.3-6.28,28.46-6.78,18.8-18.56,35.62-33.44,48.91-1.05.94-2.12,1.86-3.2,2.76-1.48,1.24.65,3.35,2.12,2.12,15.65-13.1,28.16-29.9,35.82-48.84,4.11-10.16,6.76-20.88,7.83-31.78.71-7.25.67-14.57-.28-21.79s-2.61-13.76-6.38-19.79C93.55,3.77,81.67-1.75,70.18.5s-20.04,12.64-22.89,23.7c-.76,2.96-1.16,6.04-1.12,9.09.03,2.62-.05,6.48,2.89,7.59s5.62-1.18,6.61-3.83c1.1-2.92,1.03-6.44.72-9.5-1.17-11.53-8.64-23.13-20.19-26.45S13.08,3.14,6.45,12.24C-1.44,23.08-1.05,37.77,2.1,50.2c.8,3.14,1.8,6.23,2.95,9.25.68,1.79,3.58,1.01,2.89-.8h.02Z"/>
</svg>