<?xml version="1.0" encoding="utf-8"?>
<!-- Generator: Adobe Illustrator 28.0.0, SVG Export Plug-In . SVG Version: 6.00 Build 0)  -->
<svg version="1.1" id="Layer_1" xmlns="http://www.w3.org/2000/svg" xmlns:xlink="http://www.w3.org/1999/xlink" x="0px" y="0px"
	 viewBox="0 0 1366 768" style="enable-background:new 0 0 1366 768;" xml:space="preserve">
<style type="text/css">
	.st0{fill:#7C3F5B;stroke:#613047;stroke-width:2;stroke-miterlimit:10;}
	.st1{fill:#B6B477;stroke:#4B7129;stroke-width:2;stroke-miterlimit:10;}
	.st2{fill:#DBA300;}
	.st3{fill:#4A7228;}
	.st4{fill:none;stroke:#4A7228;stroke-miterlimit:10;}
	.st5{fill:#B6B477;}
	.st6{fill:none;stroke:#4B7129;stroke-width:2;stroke-miterlimit:10;}
	.st7{opacity:0.3;fill:#FFB82C;}
	.st8{opacity:0.3;}
	.st9{fill:#FFB82C;}
	.st10{fill:#FFF3CB;}
	.st11{fill:#D5AB78;}
	.st12{fill:none;stroke:#457036;stroke-miterlimit:10;}
	.st13{fill:none;stroke:#000000;stroke-miterlimit:10;}
	.st14{fill:none;stroke:#457036;stroke-width:2;stroke-miterlimit:10;}
	.st15{fill:none;stroke:#457036;stroke-width:3;stroke-miterlimit:10;}
	.st16{fill:none;stroke:#457036;stroke-width:4;stroke-miterlimit:10;}
	.st17{fill:#457036;}
	.st18{fill:#DBBF96;}
	.st19{fill:#E6DACD;}
	.st20{fill:none;stroke:#CD9965;stroke-width:3;stroke-miterlimit:10;}
	.st21{fill:#DFD5B3;}
	.st22{fill:none;}
	.st23{fill:#507D3E;}
	.st24{font-family:'MyriadPro-Regular';}
	.st25{font-size:24.2646px;}
	.st26{fill:#B6B477;stroke:#4B7129;stroke-miterlimit:10;}
	.st27{fill:#6F6F6E;}
	.st28{fill:#9B9A9A;}
	.st29{fill:#EDEDED;stroke:#C8C7C7;stroke-miterlimit:10;}
	.st30{fill:#E1E0E0;}
	.st31{fill:#FFFFFF;stroke:#959495;stroke-miterlimit:10;}
	.st32{fill:#EDEDED;}
	.st33{fill:#FFFFFF;}
	.st34{fill:#333333;}
	.st35{fill:#FF8000;stroke:#FB3E00;stroke-miterlimit:10;}
	.st36{fill:#FF9E00;}
	.st37{fill:#FAE400;}
	.st38{fill:#7C3F5B;}
	.st39{fill:#FFF3CB;stroke:#5B2D42;stroke-width:2;stroke-miterlimit:10;}
	.st40{fill:#5B2D42;}
	.st41{fill:none;stroke:#894767;stroke-width:6;stroke-miterlimit:10;}
	.st42{fill:#471F05;stroke:#471F05;stroke-width:3;stroke-miterlimit:10;}
	.st43{fill:#B97C3E;stroke:#673606;stroke-miterlimit:10;}
	.st44{fill:#FFF3CB;stroke:#673606;stroke-miterlimit:10;}
	.st45{fill:#673606;}
	.st46{fill:#FFFFFF;stroke:#673606;stroke-miterlimit:10;}
	.st47{font-size:48.5293px;}
	.st48{fill:#472132;}
	.st49{fill:#894767;}
	.st50{fill:#954C6F;}
	.st51{fill:none;stroke:#462031;stroke-miterlimit:10;}
	.st52{opacity:0.6;}
	.st53{fill:none;stroke:#68254B;stroke-width:2;stroke-miterlimit:10;}
	.st54{fill:#E8A6B1;}
	.st55{fill:none;stroke:#E592A7;stroke-width:2;stroke-miterlimit:10;}
	.st56{fill:#B99392;}
	.st57{fill:#CA939C;}
	.st58{fill:#D89DA6;}
	.st59{fill:#E7B9BA;}
	.st60{fill:none;stroke:#986572;stroke-miterlimit:10;}
</style>
<g>
	<g>
		<path class="st0" d="M1037,219.5c2.9-3.8,9,0.4,21.7-1.3c6.5-0.9,12.9-3.6,25.9-8.9c9.1-3.8,12.5-5.7,16.7-4.2
			c2.5,0.9,5.1,2.9,9,11.1c4.4,9.2,6,16.9,9,34.6c3,17.8,3,19.5,1.8,21.9c-1.9,3.7-5.6,7-28.2,12.7c-22.3,5.6-33.6,8.3-38.4,4.4
			c-5.8-4.7-1.3-10.2-9-34.6c-1.8-5.7-3.4-11.4-5.2-17C1036.2,224.6,1035.3,221.7,1037,219.5z"/>
		<g>
			<path class="st0" d="M1039.5,233.9c23.5-5.9,46.9-11.8,70.4-17.8"/>
			<line class="st0" x1="1042.2" y1="243.1" x2="1113.3" y2="225.1"/>
			<path class="st0" d="M1044.9,251.9c23.6-5.9,47.2-11.9,70.7-17.8"/>
			<path class="st0" d="M1061,257.7c18.9-4.8,37.7-9.5,56.6-14.3"/>
			<path class="st0" d="M1096.2,258.9c7.7-2.1,15.3-4.1,23-6.2"/>
			<path class="st0" d="M1094.9,269.9c8.6-2.6,17.2-5.3,25.8-7.9"/>
		</g>
		<path class="st1" d="M1024.3,253.6c3.1-2.1,6.6-1.2,15,0.5c12,2.5,19.4,4,24.3,4.6c19,2.5,28-4.7,31.7,0.3
			c2.6,3.4-1.7,6.8-2.3,21.2c-0.4,9,1.1,11.3-1,14.4c-1.3,1.9-4.1,4.2-20.9,4.9c-4.8,0.2-13.2,0.4-33.8-1.8
			c-14.3-1.5-16.7-2.3-18.6-4.6c-2.4-3.1-1.5-9.4,0.3-21.9C1021,256.8,1022.6,254.7,1024.3,253.6z"/>
		<g>
			<circle class="st2" cx="1035.9" cy="220.1" r="2.9"/>
			<g>
				<g>
					<g>
						<path class="st2" d="M1030,231.3c0-1,0.1-1.9,0.1-2.9c0-0.9,0.1-1.7,0.6-2.4c0.5-0.7,1.2-1.4,1.8-2.1c0.7-0.7,1.3-1.5,2-2.2
							c0.5-0.6-0.3-1.5-0.9-0.9c-0.7,0.8-1.4,1.6-2.2,2.4c-0.6,0.7-1.3,1.4-1.8,2.2c-0.5,0.8-0.6,1.7-0.7,2.6
							c-0.1,1.1-0.1,2.2-0.1,3.2C1028.7,232.1,1029.9,232.1,1030,231.3L1030,231.3z"/>
					</g>
				</g>
				<g>
					<g>
						<path class="st2" d="M1030,236.6c0.9-1,1.5-2.2,1.8-3.5c0.4-1.5,0.2-2.9,0.1-4.3c-0.2-1.5,0-2.8,0.8-4.1
							c0.7-1.2,1.7-2.3,2.7-3.3c0.6-0.6-0.3-1.5-0.9-0.9c-1.8,1.8-3.7,3.9-3.9,6.6c-0.1,1.5,0.4,3,0.2,4.6c-0.1,1.5-0.7,2.9-1.7,4.1
							C1028.6,236.3,1029.5,237.2,1030,236.6L1030,236.6z"/>
					</g>
				</g>
				<g>
					<g>
						<path class="st2" d="M1033.8,236.5c0.2-1.4,0.4-2.9,0.4-4.3c0-1.4-0.2-2.8-0.3-4.1c-0.2-2.3-0.1-5,1.7-6.7
							c0.6-0.5-0.3-1.4-0.9-0.9c-1.9,1.7-2.3,4.3-2.2,6.7c0.1,1.5,0.3,2.9,0.3,4.4c0,1.6-0.2,3.3-0.4,4.9
							C1032.4,237.3,1033.7,237.3,1033.8,236.5L1033.8,236.5z"/>
					</g>
				</g>
				<g>
					<g>
						<path class="st2" d="M1035.9,236.2c0.4-2.6-0.3-5.2-0.6-7.8c-0.3-2.1-0.2-4.5,1.3-6.2c0.5-0.6-0.4-1.5-0.9-0.9
							c-3.7,4.2-0.2,9.7-1,14.5C1034.6,236.7,1035.8,237,1035.9,236.2L1035.9,236.2z"/>
					</g>
				</g>
			</g>
		</g>
		<circle class="st2" cx="1100.2" cy="204.6" r="2.9"/>
		<g>
			<g>
				<g>
					<path class="st2" d="M1111.3,211.8c-0.5-0.9-0.9-1.9-1.4-2.8c-0.4-0.8-0.9-1.6-1.7-2.1c-0.8-0.5-1.7-0.9-2.5-1.2
						c-1-0.5-2-0.9-3.1-1.4c-0.3-0.1-0.7-0.1-0.9,0.2c-0.2,0.3-0.1,0.7,0.2,0.9c0.9,0.4,1.9,0.8,2.8,1.3c0.8,0.4,1.7,0.7,2.5,1.2
						c0.7,0.5,1.1,1.1,1.5,1.9c0.5,0.9,0.9,1.8,1.4,2.7C1110.6,213.1,1111.7,212.5,1111.3,211.8L1111.3,211.8z"/>
				</g>
			</g>
			<g>
				<g>
					<path class="st2" d="M1112.9,216.1c-1.3-0.6-2.4-1.6-3.2-2.8c-0.8-1.3-1-2.9-1.7-4.3c-1.2-2.5-4-3.7-6.5-4.6
						c-0.8-0.3-1.1,0.9-0.3,1.2c1.2,0.5,2.5,1,3.6,1.7c1.2,0.8,2,1.9,2.5,3.3c0.5,1.4,0.9,2.8,1.8,4c0.8,1.1,1.9,2,3.2,2.6
						C1113,217.5,1113.6,216.4,1112.9,216.1L1112.9,216.1z"/>
				</g>
			</g>
			<g>
				<g>
					<path class="st2" d="M1110,218.1c-0.8-1.3-1.6-2.6-2.2-4c-0.6-1.4-1-2.9-1.6-4.3c-0.9-2.3-2.4-4.5-4.8-5.3
						c-0.8-0.2-1.1,1-0.3,1.2c2.5,0.8,3.6,3.4,4.4,5.6c0.4,1.2,0.8,2.5,1.4,3.7c0.6,1.3,1.4,2.5,2.1,3.8
						C1109.4,219.4,1110.4,218.8,1110,218.1L1110,218.1z"/>
				</g>
			</g>
			<g>
				<g>
					<path class="st2" d="M1107.9,218.6c-2.7-4-1.9-10.6-6.9-12.9c-0.7-0.3-1.4,0.7-0.6,1.1c2.1,1,3.2,3.2,3.9,5.3
						c0.7,2.4,1.2,5,2.6,7.1C1107.2,219.9,1108.3,219.3,1107.9,218.6L1107.9,218.6z"/>
				</g>
			</g>
		</g>
		<circle class="st2" cx="1121.9" cy="272.5" r="2.9"/>
		<g>
			<g>
				<g>
					<path class="st2" d="M1133,279.7c-0.5-0.9-0.9-1.9-1.4-2.8c-0.4-0.8-0.9-1.6-1.7-2.1c-0.8-0.5-1.7-0.9-2.5-1.2
						c-1-0.5-2-0.9-3.1-1.4c-0.3-0.1-0.7-0.1-0.9,0.2c-0.2,0.3-0.1,0.7,0.2,0.9c0.9,0.4,1.9,0.8,2.8,1.3c0.8,0.4,1.7,0.7,2.5,1.2
						c0.7,0.5,1.1,1.1,1.5,1.9c0.5,0.9,0.9,1.8,1.4,2.7C1132.3,281,1133.4,280.4,1133,279.7L1133,279.7z"/>
				</g>
			</g>
			<g>
				<g>
					<path class="st2" d="M1134.6,284c-1.3-0.6-2.4-1.6-3.2-2.8c-0.8-1.3-1-2.9-1.7-4.3c-1.2-2.5-4-3.7-6.5-4.6
						c-0.8-0.3-1.1,0.9-0.3,1.2c1.2,0.5,2.5,1,3.6,1.7c1.2,0.8,2,1.9,2.5,3.3c0.5,1.4,0.9,2.8,1.8,4c0.8,1.1,1.9,2,3.2,2.6
						C1134.7,285.4,1135.3,284.3,1134.6,284L1134.6,284z"/>
				</g>
			</g>
			<g>
				<g>
					<path class="st2" d="M1131.7,286c-0.8-1.3-1.6-2.6-2.2-4c-0.6-1.4-1-2.9-1.6-4.3c-0.9-2.3-2.4-4.5-4.8-5.3
						c-0.8-0.2-1.1,1-0.3,1.2c2.5,0.8,3.6,3.4,4.4,5.6c0.4,1.2,0.8,2.5,1.4,3.7c0.6,1.3,1.4,2.5,2.1,3.8
						C1131.1,287.3,1132.2,286.7,1131.7,286L1131.7,286z"/>
				</g>
			</g>
			<g>
				<g>
					<path class="st2" d="M1129.6,286.5c-2.7-4-1.9-10.6-6.9-12.9c-0.7-0.3-1.4,0.7-0.6,1.1c2.1,1,3.2,3.2,3.9,5.3
						c0.7,2.4,1.2,5,2.6,7.1C1128.9,287.8,1130,287.2,1129.6,286.5L1129.6,286.5z"/>
				</g>
			</g>
		</g>
		<g>
			<g>
				<g>
					<polygon class="st3" points="1026.4,283.8 1024.4,278.6 1022.4,273.4 1027.9,274.3 1033.4,275.1 1029.9,279.4 					"/>
					<polygon class="st3" points="1029.3,264.7 1031.3,269.9 1033.4,275.1 1027.9,274.3 1022.4,273.4 1025.9,269.1 					"/>
				</g>
				<g>
					<polygon class="st3" points="1054.8,288.1 1052.5,283 1050.2,278 1055.7,278.5 1061.2,279.1 1058,283.6 					"/>
					<polygon class="st3" points="1056.6,269 1058.9,274 1061.2,279.1 1055.7,278.5 1050.2,278 1053.4,273.5 					"/>
				</g>
				<g>
					<polygon class="st3" points="1069.3,288.7 1066.5,283.9 1063.7,279.1 1069.3,279.1 1074.8,279.1 1072.1,283.9 					"/>
					<polygon class="st3" points="1069.3,269.4 1072.1,274.3 1074.8,279.1 1069.3,279.1 1063.7,279.1 1066.5,274.2 					"/>
				</g>
				<g>
					<polygon class="st3" points="1040.2,286 1038.2,280.8 1036.2,275.6 1041.7,276.5 1047.1,277.3 1043.7,281.6 					"/>
					<polygon class="st3" points="1043.1,267 1045.1,272.1 1047.1,277.3 1041.7,276.5 1036.2,275.6 1039.6,271.3 					"/>
				</g>
				<g>
					<polygon class="st3" points="1083,288.7 1080.2,283.9 1077.4,279.1 1082.9,279.1 1088.5,279 1085.8,283.8 					"/>
					<polygon class="st3" points="1082.8,269.4 1085.6,274.2 1088.5,279 1082.9,279.1 1077.4,279.1 1080.1,274.3 					"/>
				</g>
			</g>
			<g>
				<path class="st4" d="M1018.9,271.1c3.7-3.8,7.3-7.7,11-11.5c2,3.7,4,7.3,6,11c2.6-2.7,5.2-5.3,7.7-8c2.1,3.5,4.2,7,6.3,10.5
					c2.6-3.1,5.2-6.3,7.8-9.4c1.9,3,3.7,5.9,5.6,8.9c2.4-2.7,4.7-5.4,7.1-8.1c2.1,3.1,4.1,6.2,6.2,9.3c2.1-3.5,4.3-6.9,6.4-10.4
					c3.4,4.9,6.7,9.9,10.1,14.8"/>
				<path class="st4" d="M1018.4,274.4c2.4,5.5,4.7,11,7.1,16.4c3-3.4,5.9-6.8,8.9-10.2c1.8,3.7,3.6,7.4,5.4,11.1
					c2.9-3.4,5.9-6.9,8.8-10.3c2.1,3.9,4.2,7.9,6.3,11.8c2.6-3.6,5.2-7.2,7.7-10.8c2.4,4,4.8,8,7.2,12.1c2.2-3.4,4.3-6.7,6.5-10.1
					c2.4,3.5,4.9,7,7.3,10.5c3.1-4.7,6.2-9.4,9.3-14.1"/>
			</g>
		</g>
	</g>
	<g>
		<g>
			<g>
				<path class="st5" d="M758.6,389c-2.4,1.2-5.5-0.8-6.3-1.3c-7.5-4.8-5.7-20.1-5.4-22.4c2,1.2,15.1,9.5,14.3,18.2
					C761.2,384.5,760.8,387.9,758.6,389z"/>
				<path class="st6" d="M758.6,389c-2.4,1.2-5.5-0.8-6.3-1.3c-7.5-4.8-5.7-20.1-5.4-22.4c2,1.2,15.1,9.5,14.3,18.2
					C761.2,384.5,760.8,387.9,758.6,389z"/>
			</g>
			<path class="st6" d="M758.1,389.3c3.1,9.6,5.8,20.8,7.2,33.3c4.6,39.3-5.4,71.7-13.2,90.7"/>
			<g>
				<path class="st5" d="M763.9,414.2c-0.8,2.9-4.8,3.9-5.8,4.2c-9.7,2.6-21-10.6-22.7-12.5c2.6-0.7,19.4-5.4,26,2
					C762.2,408.7,764.7,411.5,763.9,414.2z"/>
				<path class="st6" d="M763.9,414.2c-0.8,2.9-4.8,3.9-5.8,4.2c-9.7,2.6-21-10.6-22.7-12.5c2.6-0.7,19.4-5.4,26,2
					C762.2,408.7,764.7,411.5,763.9,414.2z"/>
			</g>
			<g>
				<path class="st5" d="M765.4,415c-2.2-2-1.3-6.1-1.1-7.1c2.1-9.8,19-13.9,21.5-14.5c-0.5,2.6-4,19.7-13.6,22.2
					C771.1,415.9,767.4,416.9,765.4,415z"/>
				<path class="st6" d="M765.4,415c-2.2-2-1.3-6.1-1.1-7.1c2.1-9.8,19-13.9,21.5-14.5c-0.5,2.6-4,19.7-13.6,22.2
					C771.1,415.9,767.4,416.9,765.4,415z"/>
			</g>
			<g>
				<path class="st5" d="M766.2,452c-1.3,2.7-5.5,2.9-6.5,3c-10,0.6-18.6-14.5-19.8-16.7c2.7-0.2,20-1.5,25.1,7
					C765.6,446.2,767.5,449.5,766.2,452z"/>
				<path class="st6" d="M766.2,452c-1.3,2.7-5.5,2.9-6.5,3c-10,0.6-18.6-14.5-19.8-16.7c2.7-0.2,20-1.5,25.1,7
					C765.6,446.2,767.5,449.5,766.2,452z"/>
			</g>
			<g>
				<path class="st5" d="M767.5,453c-1.7-2.4-0.1-6.2,0.3-7.2c4-9.2,21.3-10,23.9-10c-1,2.5-7.8,18.5-17.7,19.2
					C773,455,769.2,455.2,767.5,453z"/>
				<path class="st6" d="M767.5,453c-1.7-2.4-0.1-6.2,0.3-7.2c4-9.2,21.3-10,23.9-10c-1,2.5-7.8,18.5-17.7,19.2
					C773,455,769.2,455.2,767.5,453z"/>
			</g>
			<g>
				<path class="st5" d="M760.3,487.2c-2,2.2-6,1.4-7.1,1.2c-9.8-1.9-14.3-18.7-14.9-21.2c2.6,0.5,19.8,3.6,22.5,13.1
					C761.1,481.5,762.1,485.1,760.3,487.2z"/>
				<path class="st6" d="M760.3,487.2c-2,2.2-6,1.4-7.1,1.2c-9.8-1.9-14.3-18.7-14.9-21.2c2.6,0.5,19.8,3.6,22.5,13.1
					C761.1,481.5,762.1,485.1,760.3,487.2z"/>
			</g>
			<g>
				<path class="st5" d="M761.3,488.5c-1.1-2.8,1.5-6,2.1-6.9c6.2-7.9,23.2-4.2,25.7-3.6c-1.6,2.1-12.2,16-22,14.1
					C766,491.8,762.3,491.1,761.3,488.5z"/>
				<path class="st6" d="M761.3,488.5c-1.1-2.8,1.5-6,2.1-6.9c6.2-7.9,23.2-4.2,25.7-3.6c-1.6,2.1-12.2,16-22,14.1
					C766,491.8,762.3,491.1,761.3,488.5z"/>
			</g>
		</g>
		<path class="st6" d="M752.4,375.6c1,1.4,1.9,3.1,2.9,5.1c1.5,3.2,2.4,6.1,2.9,8.6"/>
		<path class="st6" d="M777.3,404c-1.1,1.2-2.5,2.6-4.4,3.8c-3.5,2.4-6.8,3.3-9,3.7"/>
		<path class="st6" d="M749.2,410.8c1,0.3,2.1,0.6,3.3,0.8c4.4,0.8,8.3,0.4,11.2-0.1"/>
		<path class="st6" d="M781,445.4c-1.1,0.9-2.7,1.9-4.6,2.8c-4,1.7-7.6,1.7-9.6,1.5"/>
		<path class="st6" d="M752.6,445.5c0.9,0.5,1.9,1.1,3,1.5c4.1,1.8,7.9,2.4,10.9,2.5"/>
		<path class="st6" d="M777.1,484.1c-1.8,0.7-4.6,1.5-8,1.8c-3.3,0.2-6-0.2-7.9-0.7"/>
		<path class="st6" d="M749,478.6c1,1,2.3,2.2,4,3.3c3.1,2,6,2.8,8,3.2"/>
	</g>
	<path class="st7" d="M484.9,282.1c-4.8,3.6-18.9,15.2-24.6,36c-7,25,3.1,45.4,5.5,50c-26.5-4.7-42.9-31.2-36.3-55.3
		C435.6,290.1,460.5,275.5,484.9,282.1z"/>
	<polygon class="st7" points="793.9,382.3 788.8,373.5 778.6,372.7 785.4,365.1 783,355.2 792.3,359.3 801,353.9 800,364.1 
		807.8,370.7 797.8,372.9 	"/>
	<polygon class="st7" points="809.8,186.9 810.5,177.4 803,171.5 812.2,169.2 815.6,160.2 820.6,168.3 830.1,168.7 824,176 
		826.5,185.2 817.7,181.6 	"/>
	<polygon class="st7" points="1056.4,377.8 1048,374.2 1040.4,379 1041.2,370 1034.2,364.2 1043.1,362.2 1046.4,353.8 1051.1,361.6 
		1060.1,362.1 1054.1,369 	"/>
	<g class="st8">
		<circle class="st9" cx="800.5" cy="292.8" r="5.2"/>
		<circle class="st9" cx="832.7" cy="272" r="5.2"/>
		<circle class="st9" cx="854.5" cy="304.8" r="5.2"/>
		<g>
			<circle class="st9" cx="807.9" cy="286.8" r="2.2"/>
			<circle class="st9" cx="813.3" cy="283.4" r="2.2"/>
			<circle class="st9" cx="818.7" cy="280" r="2.2"/>
			<circle class="st9" cx="824" cy="276.6" r="2.2"/>
		</g>
		<g>
			<circle class="st9" cx="848.8" cy="295.9" r="2.2"/>
			<circle class="st9" cx="845.4" cy="290.6" r="2.2"/>
			<circle class="st9" cx="841.9" cy="285.2" r="2.2"/>
			<circle class="st9" cx="838.5" cy="279.9" r="2.2"/>
		</g>
		<circle class="st9" cx="892.5" cy="313.4" r="5.2"/>
		<g>
			<circle class="st9" cx="882.4" cy="311.1" r="2.2"/>
			<circle class="st9" cx="876.2" cy="309.7" r="2.2"/>
			<circle class="st9" cx="870" cy="308.3" r="2.2"/>
			<circle class="st9" cx="863.8" cy="306.9" r="2.2"/>
		</g>
	</g>
	<g class="st8">
		<circle class="st9" cx="1075.8" cy="128.7" r="6.7"/>
		<circle class="st9" cx="1071.6" cy="140.3" r="2.2"/>
		<circle class="st9" cx="1081.4" cy="139.9" r="3.4"/>
	</g>
	<g class="st8">
		<circle class="st9" cx="778.8" cy="76.4" r="6.7"/>
		<circle class="st9" cx="783.2" cy="64.9" r="2.2"/>
		<circle class="st9" cx="773.4" cy="65.1" r="3.4"/>
	</g>
	<g class="st8">
		<circle class="st9" cx="513.6" cy="448.8" r="6.7"/>
		<circle class="st9" cx="524.9" cy="453.6" r="2.2"/>
		<circle class="st9" cx="525.1" cy="443.8" r="3.4"/>
	</g>
	<g class="st8">
		<circle class="st9" cx="159.1" cy="535.4" r="5.2"/>
		<circle class="st9" cx="191.2" cy="514.5" r="5.2"/>
		<circle class="st9" cx="213" cy="547.4" r="5.2"/>
		<g>
			<circle class="st9" cx="166.5" cy="529.4" r="2.2"/>
			<circle class="st9" cx="171.9" cy="526" r="2.2"/>
			<circle class="st9" cx="177.2" cy="522.6" r="2.2"/>
			<circle class="st9" cx="182.6" cy="519.2" r="2.2"/>
		</g>
		<g>
			<circle class="st9" cx="207.3" cy="538.5" r="2.2"/>
			<circle class="st9" cx="203.9" cy="533.1" r="2.2"/>
			<circle class="st9" cx="200.5" cy="527.8" r="2.2"/>
			<circle class="st9" cx="197.1" cy="522.4" r="2.2"/>
		</g>
		<circle class="st9" cx="136.9" cy="504" r="5.2"/>
		<g>
			<circle class="st9" cx="142.6" cy="512.7" r="2.2"/>
			<circle class="st9" cx="146" cy="518" r="2.2"/>
			<circle class="st9" cx="149.5" cy="523.4" r="2.2"/>
			<circle class="st9" cx="152.9" cy="528.7" r="2.2"/>
		</g>
	</g>
	<path class="st7" d="M1133,371.1c19.3,0.7,37.3-9.8,46-26.7c8.2-15.8,7.1-35.1-2.9-50.1c24,12.2,32,42.3,18.8,63.5
		C1182.5,377.7,1154.5,384.5,1133,371.1z"/>
	<g class="st8">
		<circle class="st9" cx="869.1" cy="431.4" r="6.7"/>
		<circle class="st9" cx="864.8" cy="443" r="2.2"/>
		<circle class="st9" cx="874.6" cy="442.6" r="3.4"/>
	</g>
	<polygon class="st7" points="1170.9,124.3 1162.6,120.7 1155,125.6 1155.8,116.5 1148.8,110.8 1157.6,108.7 1161,100.3 
		1165.6,108.1 1174.7,108.7 1168.7,115.5 	"/>
	<g class="st8">
		<circle class="st9" cx="1175.5" cy="211.5" r="6.7"/>
		<circle class="st9" cx="1186.9" cy="216.3" r="2.2"/>
		<circle class="st9" cx="1187" cy="206.5" r="3.4"/>
	</g>
	<g>
		<path class="st10" d="M1278.6,530.7"/>
		<g>
			<path class="st11" d="M1037.5,641c-2.1,4.6-1.5,10.5-1.1,13.4c0.9,6.7,2,11.1,3.3,16.6c3.1,13.3,5.3,26,5.3,26.1l0,0
				c0,0-13.5,7.6-27.2,7.2c-11.6-0.4-23.4-6.5-23.4-6.5l0,0c0,0,2-9.9,3.9-17.9c3.1-12.9,3.7-11.3,4.9-18.6c1-6.1,2.9-18-1.4-22.2
				c-0.7-0.7-2.2-1.8-4.4-4.2c0,0-1.6-1.8-3-3.9c-4.4-6.6-7.5-27-7.6-27.7c-3-19.9-5.4-25.2-3-27.4c2-1.7,4.7,0.8,10.9,3.3
				c8.2,3.2,14.6,3.1,26.7,2.9c0,0,12.1-0.2,25.1-3.3c1.6-0.4,10.9-2.6,10.9-2.6c0,0-4.8,42.7-9.8,52.1c-2.1,3.9-3.8,5.5-3.8,5.5
				c-1.5,1.3-2.6,1.7-4.1,3.6C1039.6,637.4,1038.4,638.9,1037.5,641z"/>
			<path class="st12" d="M1045.1,632.6c-0.1,0,1.5-8,3-16.6c3.5-20.2,5.6-39.1,5.1-39.2c-0.4-0.1-3.5,14.5-5.7,29.7
				c-0.7,4.6-1.1,8.4-2.4,14c-2,8.5-4.8,15.7-4.8,15.7c0,0,0.7-2,1.3-4.2c2.6-8.6,3.4-16.1,3.8-19.9c0.2-1.9,3.5-34.8,2.4-34.9
				c-0.6-0.1-2.1,9.1-4.3,23.2c-2.1,13-2.3,16.5-4.3,24.2c-1.9,7.3-4.5,14.7-4.6,14.7c-0.1,0,0.6-2.5,0.8-3.3
				c2.5-9.5,3.2-20.3,3.5-26.8c0.2-4,1.7-31.3,1.3-31.3c-0.4,0-5.7,46.9-9.4,57.8c-0.1,0.3-1.6,4.6-1.6,4.6c0,0,0.4-1.3,0.8-2.6
				c0,0,0.9-2.9,1.6-6.5c1.5-7.4,0.5-28.1,0.5-28.1c-0.7-15.5,0.5-24.1,0-24.2c-1.3-0.1-6.4,60.8-7.3,60.7c-0.2,0-0.1-2.4,0-6.5
				c0.1-7.8-0.1-13.2-0.5-23.8c-0.5-11.9-1.2-30.4-2.2-30.4c-1.1,0-2,25.8-2.2,29.1c-0.7,18.2-0.4,32-1.1,32c-0.2,0-0.4-1-0.8-3.9
				c-1.7-11.5-2.2-17.6-2.2-17.6c-0.5-6.3-1.1-12.6-1.6-18.9c-1.2-13.7-1.7-20.6-2.2-20.6c-0.8,0-1.1,14.5-1.3,24.2
				c-0.3,13.2-0.4,19.9,0.5,27.1c0.5,3.8,1.5,9.3,1.1,9.5c-0.3,0.1-1.3-3.3-1.6-4.2c-3.3-11.2-3.2-23.5-4-33.9
				c-0.9-11.1-2.9-22.3-3.8-22.2c-1,0.1-0.6,15.1-0.3,25.8c0.4,13,1,17.9,1.6,21.9c1,6.2,2.4,11.3,2.2,11.4c-0.2,0.1-1.8-4.5-3-9.1
				c-2.3-8.6-3-15.5-3.2-17.6c-1.7-15.4-5-33.1-5.7-33c-0.6,0.1,0,16,2.7,33.9c2.2,14.9,4.9,25,4.6,25.1c-0.3,0.1-4-12.2-7-27.4
				c-4-20-4.9-33.4-5.4-33.3c-0.5,0.1,0,14.7,2.4,32c1.9,13.3,5,23.4,4,23.8c-0.7,0.3-3.2-5.8-3.5-6.5c-1.4-3.4-3.2-8.8-5.4-24.5
				c-1.6-11.5-0.8-9.8-1.9-15.3c-1.2-6.2-1.3-9.7-1.1-9.8c0.3-0.1,2,7.9,2.2,8.5c2.3,10.7,3.4,19.6,5.7,33.3
				c1.6,10.1,2.2,12.3,4,14.4c2.5,2.7,6.1,3.2,13.2,4.2c5.8,0.8,10.2,0.7,13.7,0.7c5.3-0.1,8-0.2,11-1c2.4-0.6,11.3-2.9,13.7-9.1
				c0.2-0.6,0.9-2.4,1.4-4.7c0.7-2.7,0.9-4.8,1-5.4c0.9-7.5,6.5-38.4,6.2-38.5c-0.2-0.1-2.8,15.2-8.1,39.8
				C1047.8,620.9,1045.3,632.6,1045.1,632.6z"/>
			<path class="st13" d="M994.5,638.8"/>
			<path class="st14" d="M1004,643.8c3.8,1.2,8.8,2.4,14.7,2.4c7.4,0.1,13.5-1.4,17.8-2.9"/>
			<path class="st15" d="M996.1,632.6c3.8,2.8,7.2,4.3,9.7,5.2c4.3,1.6,7.9,2,11,2.3c2.8,0.3,5.4,0.4,6.7,0.3
				c8.7-0.2,17.3-5.9,21.3-8.8"/>
			<path class="st16" d="M1004.6,649.4c3.3,1.5,8.4,3.3,14.6,3.6c7.2,0.3,13.1-1.4,16.7-2.9"/>
			<g>
				<g>
					<g>
						<path class="st17" d="M978.4,576.1c0.2,4.4,4.8,5.8,8.4,6.8c4.2,1.2,8.4,1.9,12.7,2.5c4.4,0.6,8.9,0.6,13.4,0.7
							c3.9,0,7.8,0,11.7-0.2c8-0.3,15.9-1.2,23.7-2.7c3.1-0.6,6-1.5,8.8-2.8c2.3-1.1,4.2-3.5,3.3-6.2c-0.4-1.3-1.2-2.4-2.4-3
							c-2.7-1.4-6.1-1.5-9-1.8c-4.4-0.4-8.9-0.6-13.4-0.7c-11.1-0.3-22.2-0.3-33.2,0.1c-4.4,0.2-8.7,0.4-13.1,0.9
							c-2.9,0.4-7.2,0.5-9.4,2.8C978.9,573.5,978.5,574.7,978.4,576.1c-0.2,2.4,2.2,4.6,4.5,4.5c2.6-0.1,4.3-2,4.5-4.5
							c-0.1,1.3-0.4,2-1.2,2.9c0.5-0.5-1.2,0.8-0.6,0.5c0.4-0.3,1-0.2-0.6,0.2c0.2,0,0.4-0.1,0.6-0.2c1.1-0.3,2.3-0.5,3.4-0.7
							c0.2,0,0.4,0,0.5-0.1c0.1,0-1.4,0.2-0.8,0.1c0.1,0,0.2,0,0.3,0c0.4,0,0.8-0.1,1.2-0.1c0.9-0.1,1.8-0.2,2.7-0.3
							c2.1-0.2,4.2-0.3,6.3-0.4c10.2-0.5,20.5-0.6,30.8-0.4c4.7,0.1,9.4,0.2,14,0.5c1.8,0.1,3.7,0.2,5.5,0.4
							c0.7,0.1,1.5,0.2,2.2,0.2c0.9,0.1-1.2-0.2-0.6-0.1c0.2,0,0.3,0,0.5,0.1c0.3,0,0.6,0.1,0.8,0.1c0.4,0.1,0.9,0.2,1.3,0.3
							c0.2,0,0.3,0.1,0.5,0.2c0.4,0.1-1.4-0.7-0.7-0.3c-0.5-0.3-1.1-0.8-1.4-1.4c0,0.1-0.5-1.1-0.4-1c0.2-0.7,0.3-1.3,0.5-2
							c-0.2-1,0.1-1.8,0.8-2.2c0.4-0.5,0.3-0.2,0,0c-0.2,0.1-0.4,0.2-0.6,0.3c-0.7,0.4,0.1,0,0.2-0.1c-0.2,0.1-0.4,0.2-0.6,0.2
							c-0.4,0.1-0.8,0.3-1.2,0.4c-0.4,0.1-0.8,0.3-1.3,0.4c-1.2,0.4-2.5,0.6-3.7,0.9c-1.2,0.2-2.3,0.5-3.5,0.7
							c-0.5,0.1-0.9,0.2-1.4,0.3c-0.3,0-1.7,0.3-0.7,0.2c-4.1,0.6-8.3,0.9-12.5,1.2c-6.6,0.4-13.2,0.4-19.8,0.3
							c-2-0.1-4.1-0.1-6.1-0.3c-0.5,0-1-0.1-1.4-0.1c-0.3,0-1.7-0.2-0.5,0c-0.9-0.1-1.9-0.3-2.8-0.4c-3.5-0.6-7.1-1.3-10.4-2.5
							c-0.2-0.1-0.3-0.1-0.5-0.2c-0.7-0.2,0.4,0.2,0.4,0.2c-0.2-0.1-0.5-0.2-0.7-0.3c-0.2-0.1-0.8-0.5-0.1,0
							c0.7,0.6,1.3,1.4,1.3,2.9c-0.1-2.3-2-4.6-4.5-4.5C980.5,571.7,978.2,573.6,978.4,576.1z"/>
					</g>
				</g>
			</g>
			<path class="st18" d="M1055.7,574.4c-0.1,0.9-1.1,4.3-17.7,6.1c-5.7,0.6-10.5,0.6-19.7,0.7c-15.8,0-7-0.6-17.5-0.7
				c0,0-3.9,0-13.7-3.3c-1.1-0.3-2.8-1-3-2.3c0-0.1,0-0.2,0-0.3c0.1-1,0.6-3.7,1.9-4.6c1-0.7,1.7,0.2,4.8,1.3c1.5,0.5,3.3,0.9,7,1.6
				c0.9,0.2,2.1,0.4,3.5,0.7c4.6,0.8,6.8,0.5,12.1,1c2.6,0.2,3.2,0.4,5.9,0.7c8.6,0.9,13.9,1.5,20.5,0.8c8.9-1,13.8-3.7,14.5-4.6
				c0.1-0.1,0.3-0.4,0.5-0.3C1055.6,571.2,1055.8,573.5,1055.7,574.4z"/>
			<path class="st19" d="M1054.7,571.4c-0.1,1.7-4.4,2.6-9.2,3.6c-1.5,0.3-4.6,0.9-9.2,1.3c-3.6,0.3-7.2,0.3-14.3,0.3
				c-1.2,0-2,0-3,0c-5.3,0-12.2-0.1-18.6-1c-1.1-0.2-14.9-2.2-14.9-4.9c0-1.2,2.6-2.2,5.5-3.2c4-1.5,7.2-1.8,8.6-2
				c8.5-0.8,12.7-1.3,13.5-1.3c9.4-0.4,15.7-0.1,21.8,0.3c2.9,0.2,7,0.5,12.1,2.3C1049.3,567.5,1054.8,569.5,1054.7,571.4z"/>
			<path class="st20" d="M997,682.3c4.9,1.5,12.2,3.3,21.2,3.6c10.5,0.3,19-1.4,24.3-2.9"/>
			<path class="st20" d="M999.3,677.1c4.5,1.5,11.2,3.3,19.5,3.6c9.7,0.3,17.5-1.4,22.4-2.9"/>
		</g>
	</g>
	<g class="st8">
		<g>
			<g>
				<path class="st9" d="M1085.9,611.2c1.9-7,4.1-13.9,6.8-20.6c0.2-0.4,0.4-1.3,0.9-1.4c0.6-0.1,1.8,0.6,2.4,0.9
					c1.8,0.7,3.5,1.5,5.3,2.2c3.5,1.5,7,3,10.6,4.5c-0.2-0.6-0.5-1.1-0.7-1.7c-2.4,7.6-4.9,15.3-7.3,22.9c-0.6,1.8,2.3,2.6,2.9,0.8
					c2.4-7.6,4.9-15.3,7.3-22.9c0.2-0.6-0.1-1.4-0.7-1.7c-4-1.7-8-3.4-11.9-5c-2-0.8-3.9-1.7-5.9-2.5c-1.7-0.7-3.4-0.6-4.6,0.9
					c-1.1,1.4-1.6,3.3-2.2,4.9c-0.7,1.9-1.4,3.9-2.1,5.8c-1.4,4-2.6,8-3.7,12.1C1082.5,612.2,1085.4,613,1085.9,611.2L1085.9,611.2z
					"/>
			</g>
		</g>
		<g>
			<g>
				<path class="st9" d="M1081.8,614.6c3.1,0,6.1-2.8,6-6c-0.1-3.3-2.6-6-6-6c-3.1,0-6.1,2.8-6,6
					C1076,611.8,1078.5,614.6,1081.8,614.6L1081.8,614.6z"/>
			</g>
		</g>
		<g>
			<g>
				<path class="st9" d="M1101.8,623.3c3.1,0,6.1-2.8,6-6c-0.1-3.3-2.6-6-6-6c-3.1,0-6.1,2.8-6,6
					C1096,620.5,1098.4,623.3,1101.8,623.3L1101.8,623.3z"/>
			</g>
		</g>
	</g>
	<g class="st8">
		<g>
			<g>
				<path class="st9" d="M930.7,553.2c3.1,0,6.1-2.8,6-6c-0.1-3.3-2.6-6-6-6c-3.1,0-6.1,2.8-6,6
					C924.8,550.5,927.3,553.2,930.7,553.2L930.7,553.2z"/>
			</g>
		</g>
		<g>
			<g>
				<path class="st9" d="M954.5,555.8c3.1,0,6.1-2.8,6-6c-0.1-3.3-2.6-6-6-6c-3.1,0-6.1,2.8-6,6C948.7,553,951.2,555.8,954.5,555.8
					L954.5,555.8z"/>
			</g>
		</g>
		<g>
			<g>
				<path class="st9" d="M935.7,548.6c-0.2-4.1-0.2-8.2-0.1-12.3c0.1-4,0.1-8.2,0.6-12.2c0.1-0.8,0.2-1.4,1-1.4
					c0.9,0,1.8,0.2,2.7,0.2c2.1,0.2,4.3,0.4,6.4,0.6c4.1,0.4,8.2,0.8,12.4,1.2c-0.5-0.5-1-1-1.5-1.5c-0.1,8.8-0.1,17.6-0.2,26.4
					c0,1.9,3,1.9,3,0c0.1-8.8,0.1-17.6,0.2-26.4c0-0.9-0.7-1.4-1.5-1.5c-4.6-0.5-9.2-0.9-13.8-1.4c-2.3-0.2-4.6-0.5-6.9-0.7
					c-1.8-0.1-3.5,0.3-4.3,2.1c-0.8,1.8-0.6,4.1-0.8,6c-0.1,2.3-0.2,4.6-0.3,6.9c-0.1,4.6-0.1,9.2,0.1,13.8
					C932.7,550.6,935.7,550.6,935.7,548.6L935.7,548.6z"/>
			</g>
		</g>
	</g>
	<g class="st8">
		<g>
			<g>
				<path class="st9" d="M980.8,491.4c-1-4.6-2.3-9.2-3.8-13.8c-0.5,0.6-1,1.3-1.4,1.9c3,0,6-1.8,7.2-4.5c0.3-0.7,0.2-1.6-0.5-2.1
					c-0.6-0.4-1.7-0.2-2.1,0.5c-0.9,1.8-2.6,3-4.6,3c-0.9,0-1.8,1-1.4,1.9c1.5,4.5,2.7,9.1,3.8,13.8
					C978.4,494.1,981.3,493.3,980.8,491.4L980.8,491.4z"/>
			</g>
		</g>
		<g>
			<g>
				<path class="st9" d="M978.7,502.5c3.1,0,6.1-2.8,6-6c-0.1-3.3-2.6-6-6-6c-3.1,0-6.1,2.8-6,6
					C972.8,499.8,975.3,502.5,978.7,502.5L978.7,502.5z"/>
			</g>
		</g>
	</g>
	<g class="st8">
		<g>
			<g>
				<path class="st9" d="M1018.9,526.6c1.4-4.6,2.5-9.2,3.4-13.8c-0.7,0.3-1.5,0.6-2.2,0.9c2.6,1.5,6.1,1.4,8.5-0.4
					c0.7-0.5,1-1.3,0.5-2.1c-0.4-0.6-1.4-1-2.1-0.5c-1.6,1.2-3.7,1.4-5.5,0.4c-0.8-0.4-2-0.1-2.2,0.9c-0.9,4.7-2.1,9.3-3.4,13.8
					C1015.4,527.6,1018.3,528.4,1018.9,526.6L1018.9,526.6z"/>
			</g>
		</g>
		<g>
			<g>
				<path class="st9" d="M1013.7,533.2c3.1,0,6.1-2.8,6-6c-0.1-3.3-2.6-6-6-6c-3.1,0-6.1,2.8-6,6
					C1007.9,530.5,1010.4,533.2,1013.7,533.2L1013.7,533.2z"/>
			</g>
		</g>
	</g>
	<g>
		<path class="st21" d="M1075.2,556.1c-19.9-10.4-45.3-34.9-42.8-66c3.5-43.2,57.8-59.6,60.6-60.4c31-8.9,75.3-2.9,96.4,30.3
			c1.3,2.1,18.8,30.6,7.4,60C1180.7,561.6,1117,577.8,1075.2,556.1z"/>
		<polygon class="st21" points="1025.9,551.6 1031.4,537.9 1036.9,524.2 1046,535.8 1055.2,547.4 1040.5,549.5 		"/>
	</g>
	<g class="st8">
		<g>
			<g>
				<path class="st9" d="M1143.2,592c-1-4.6-2.3-9.2-3.8-13.8c-0.5,0.6-1,1.3-1.4,1.9c3,0,6-1.8,7.2-4.5c0.3-0.7,0.2-1.6-0.5-2.1
					c-0.6-0.4-1.7-0.2-2.1,0.5c-0.9,1.8-2.6,3-4.6,3c-0.9,0-1.8,1-1.4,1.9c1.5,4.5,2.7,9.1,3.8,13.8
					C1140.8,594.7,1143.7,593.9,1143.2,592L1143.2,592z"/>
			</g>
		</g>
		<g>
			<g>
				<path class="st9" d="M1141.1,603.1c3.1,0,6.1-2.8,6-6c-0.1-3.3-2.6-6-6-6c-3.1,0-6.1,2.8-6,6
					C1135.2,600.4,1137.7,603.1,1141.1,603.1L1141.1,603.1z"/>
			</g>
		</g>
	</g>
	<g class="st8">
		<g>
			<g>
				<path class="st9" d="M952.5,602.6c2.8-3.9,5.3-7.9,7.7-12c-0.8,0.1-1.6,0.2-2.4,0.3c2,2.3,5.4,3.2,8.2,2.3
					c1.8-0.6,1.1-3.5-0.8-2.9c-1.9,0.6-4,0-5.3-1.5c-0.6-0.7-1.9-0.5-2.4,0.3c-2.4,4.1-4.9,8.1-7.7,12c-0.5,0.7-0.1,1.7,0.5,2.1
					C951.2,603.6,952.1,603.3,952.5,602.6L952.5,602.6z"/>
			</g>
		</g>
		<g>
			<g>
				<path class="st9" d="M947.2,610.5c3.1,0,6.1-2.8,6-6c-0.1-3.3-2.6-6-6-6c-3.1,0-6.1,2.8-6,6
					C941.4,607.8,943.9,610.5,947.2,610.5L947.2,610.5z"/>
			</g>
		</g>
	</g>
	<rect x="1050.4" y="471.8" class="st22" width="146.5" height="59.6"/>
	<text transform="matrix(1 0 0 1 1050.391 489.0129)"><tspan x="0" y="0" class="st23 st24 st25">Fællessang- &amp; </tspan><tspan x="0" y="29.1" class="st23 st24 st25">musikaftener</tspan></text>
	<g>
		<g>
			<path class="st26" d="M205.2,328.2c-1.9,4.8-4.9,7.8-6.4,9.2c-0.8,0.8-7.6,7.5-14.9,9.5c-1.2,0.3-4,1-4.7,2.9
				c-0.3,0.8-0.2,1.6-0.9,3c-0.5,0.9-0.8,1-1.3,1.8c-0.7,1.2-0.7,2.3-0.8,3.4c-0.1,0.9-0.3,4.8-0.4,5.9c-0.3,3.3-0.5,6.4-2.3,7.3
				c-1.6,0.9-2.8-1-6.5-0.6c-2.3,0.3-2.5,1.1-3.8,0.9c-1.9-0.4-1.8-2.1-5.3-6c-1.7-1.8-3-2.8-2.8-4.3c0.1-0.9,0.6-1.2,0.6-2.1
				c-0.1-1.6-1.9-1.9-1.9-2.9c-0.1-1.9,6.3-2.7,11.8-7.8c1.5-1.4,2.2-2.4,2.5-3.4c1-2.6-0.5-3.7,0.1-6.6c0.6-2.9,2.3-2.9,3.4-6.6
				c0.6-1.8,0.3-2.1,0.7-4.6c0.2-1.2,1-5.3,3.2-9.2c2.4-4.2,3.9-3.6,5.4-7.2c1-2.5,0.3-2.8,1.5-7.1c0.9-3.4,1.3-3.2,2.8-7.6
				c1.8-5.3,1.3-6.2,3-9c0.8-1.4,1.7-3,3.6-4.5c1.3-1.1,2.2-1.3,3.7-2.7c0,0,1.5-1.4,2.9-3.3c4.1-6.1,1.8-17.7,7.1-20.9
				c1.1-0.7,1.5-0.3,3.3-1.4c2.5-1.5,2.7-2.9,5.6-4.7c0.7-0.4,2.9-1.8,3.8-1.1c0.4,0.3,0.2,0.8,0.7,1.2c0.6,0.4,1.3-0.1,2.5-0.1
				c1.1,0,2.8,0.4,3.1,1.3c0.2,0.6-0.3,0.9-1,2.9c-0.3,0.9-0.6,1.7-0.4,1.8c0.5,0.4,3.7-4.4,5-3.8c0.7,0.3,0.7,1.9,0.6,2.8
				c-0.2,1.3-0.8,2-0.5,2.3c0.4,0.3,1.5-0.8,2.2-0.4c1.1,0.5,0.1,3.7,1,4.1c0.8,0.4,2.3-2.5,3.6-2.1c0.7,0.2,1,1.3,1.1,1.9
				c0.2,1.2-0.4,1.9-0.1,2.2c0.4,0.4,1.2-0.4,2.4-0.3c0.8,0.1,1.7,0.6,2,1c0,0,1.7,2.2-5.7,12.2c1.4,0.4,1.4,0.5,1.4,0.5
				c0.3,0.7-3.1,2.4-6.3,5.8c-0.3,0.3-1.7,1.9-3.1,4.3c-1.4,2.4-2.1,4.4-2.2,4.9c-1.3,4-0.3,4.5-1.5,6.9c-1.2,2.4-2.6,2.5-3.3,5
				c-0.5,1.5-0.2,2.4-0.2,3.9c-0.1,4.7-2.9,8.4-3.5,9.1c-3.2,4.1-6.2,3-8.7,7.2C205.9,325,206.2,325.5,205.2,328.2z"/>
			<g>
				<g>
					<path class="st3" d="M173.3,356.8c-0.9,2.3-1.9,4.5-2.9,6.7c-0.5,1-1,2.1-1.5,3.1c-0.5,1-1,2.1-1.8,2.8c-0.6,0.5,0,1.6,0.6,1.1
						c0.9-0.7,1.4-1.6,1.9-2.6c0.6-1.2,1.2-2.4,1.8-3.6c1.1-2.4,2.2-4.8,3.1-7.2C174.8,356.4,173.6,356.1,173.3,356.8L173.3,356.8z"
						/>
				</g>
			</g>
			<g>
				<g>
					<path class="st3" d="M169.5,352.7c-0.5,1.1-1.5,1.9-2.5,2.6c-1.1,0.8-2.1,1.6-2.9,2.6c-2,2.5-3.7,5.2-5.4,7.8
						c-0.4,0.7,0.6,1.3,1.1,0.6c0.9-1.4,1.8-2.7,2.7-4c0.9-1.3,1.8-2.7,2.8-3.9c1.6-1.9,4.3-2.8,5.3-5.1
						C170.9,352.6,169.8,352,169.5,352.7L169.5,352.7z"/>
				</g>
			</g>
			<g>
				<g>
					<path class="st3" d="M156.6,360c0.7-1,1.8-1.7,2.8-2.5c1-0.8,2.1-1.5,3.2-2c1.1-0.5,2.2-1,3.2-1.7c1-0.7,2-1.5,2.9-2.3
						c0.6-0.5-0.3-1.4-0.9-0.9c-1,0.8-2,1.6-3,2.3c-1.1,0.7-2.3,1.2-3.5,1.8c-1.1,0.6-2.2,1.3-3.2,2.1c-1,0.8-2,1.5-2.7,2.5
						C155,360,156.1,360.6,156.6,360L156.6,360z"/>
				</g>
			</g>
			<g>
				<g>
					<path class="st3" d="M172.3,347.7c1.1-1,2.1-2.3,2.8-3.6c0.2-0.3,0.1-0.7-0.2-0.9c-0.3-0.2-0.7-0.1-0.9,0.2
						c-0.2,0.3-0.4,0.6-0.5,0.9c-0.1,0.2-0.2,0.3-0.3,0.4c-0.1,0.1-0.1,0.2-0.2,0.2c0,0,0,0.1-0.1,0.1c-0.1,0.1,0,0,0,0
						c-0.5,0.6-0.9,1.1-1.5,1.6c-0.2,0.2-0.2,0.7,0,0.9C171.6,347.9,172,347.9,172.3,347.7L172.3,347.7z"/>
				</g>
			</g>
			<g>
				<g>
					<path class="st3" d="M177.7,332.8c-2.5,1.2-4.3,3.2-5.9,5.3c-1.6,2.1-3.8,4.6-3.1,7.5c0.2,0.8,1.4,0.5,1.2-0.3
						c-0.3-1.3,0.3-2.6,0.9-3.6c0.7-1.1,1.4-2.1,2.2-3c1.5-1.9,3.1-3.6,5.3-4.7C179,333.5,178.4,332.5,177.7,332.8L177.7,332.8z"/>
				</g>
			</g>
			<g>
				<g>
					<path class="st3" d="M177.9,332.2c-0.4,3-1,6-1.9,9c-0.2,0.8,1,1.1,1.2,0.3c0.9-3,1.6-6.2,2-9.3c0-0.3-0.3-0.6-0.6-0.6
						C178.1,331.6,177.9,331.9,177.9,332.2L177.9,332.2z"/>
				</g>
			</g>
			<g>
				<g>
					<path class="st3" d="M195.6,328.9c-0.6,2.5-2.5,4.2-4.3,5.8c-2,1.8-3.6,3.9-5.4,5.8c-3.1,3.4-7.8,5.5-9.8,9.9
						c-0.3,0.7,0.7,1.4,1.1,0.6c1-2.2,2.8-3.8,4.7-5.3c2-1.6,4-3.2,5.7-5.2c1.8-2,3.5-3.9,5.5-5.8c1.7-1.6,3.2-3.3,3.8-5.6
						C197,328.5,195.7,328.1,195.6,328.9L195.6,328.9z"/>
				</g>
			</g>
			<g>
				<g>
					<path class="st3" d="M184.5,330.9c-0.3,1.7-0.6,3.5-1.3,5.1c-0.6,1.5-1.5,2.9-2.5,4.3c-2.1,2.9-4.4,5.8-6.5,8.6
						c-0.5,0.6,0.6,1.3,1.1,0.6c2.2-3,4.6-5.9,6.7-8.9c1-1.3,1.8-2.8,2.4-4.3c0.6-1.6,0.9-3.4,1.3-5.1
						C185.8,330.5,184.6,330.1,184.5,330.9L184.5,330.9z"/>
				</g>
			</g>
			<g>
				<g>
					<path class="st3" d="M203,318.6c-0.6,1.4-1.6,2.6-2.6,3.7c-1.1,1.2-2.2,2.3-3,3.7c-0.4,0.7,0.7,1.3,1.1,0.6
						c1.7-2.8,4.5-4.7,5.8-7.7c0.1-0.3-0.1-0.7-0.4-0.8C203.5,318.1,203.2,318.3,203,318.6L203,318.6z"/>
				</g>
			</g>
			<g>
				<g>
					<path class="st3" d="M201.6,310.9c-5.6,4.8-11.9,9.6-15.2,16.5c-0.3,0.7,0.7,1.4,1.1,0.6c3.2-6.8,9.4-11.5,15-16.2
						C203.1,311.3,202.2,310.4,201.6,310.9L201.6,310.9z"/>
				</g>
			</g>
			<g>
				<g>
					<path class="st3" d="M192.6,304.5c-2,1.2-4,2.5-5.6,4.3c-0.8,0.9-1.3,2-1.9,3c-0.7,1.2-1.6,2.3-2.4,3.5
						c-1.4,2.1-2.3,4.4-3.1,6.8c-0.8,2.4-1.8,5-0.9,7.5c0.3,0.8,1.5,0.4,1.2-0.3c-0.8-2.4,0.2-5,1-7.2c0.8-2.3,1.7-4.5,3.1-6.4
						c0.7-1,1.5-1.9,2.1-2.9c0.6-1.1,1.1-2.2,1.9-3.1c1.4-1.7,3.3-2.8,5.2-4C193.9,305.2,193.2,304.1,192.6,304.5L192.6,304.5z"/>
				</g>
			</g>
			<g>
				<g>
					<path class="st3" d="M196.7,287.9c-5.3,5.6-7.8,12.9-10.2,20.1c-0.3,0.8,1,1.1,1.2,0.3c2.3-6.9,4.7-14.1,9.9-19.5
						C198.2,288.2,197.3,287.3,196.7,287.9L196.7,287.9z"/>
				</g>
			</g>
			<g>
				<g>
					<path class="st3" d="M199.3,277C199.3,276.9,199.3,276.9,199.3,277c0-0.1,0.1-0.1,0.1-0.2c0-0.1,0.1-0.2,0.1-0.2
						c0.1-0.2,0.2-0.3,0.2-0.5c0.2-0.3,0.3-0.5,0.6-0.8c0,0,0.2-0.2,0.1-0.1c0.1,0,0.1-0.1,0.2-0.1c0.1,0,0.1-0.1,0.2-0.1
						c-0.1,0,0.1,0,0.1,0c0.3-0.1,0.4-0.1,0.7,0c0.1,0,0.1,0,0,0c0,0,0.1,0,0.1,0.1c0,0,0.1,0,0.1,0.1c-0.1,0-0.1,0,0,0
						c0,0,0.2,0.2,0.1,0.1c0,0.1,0.1,0.1,0.1,0.2c0,0,0,0.1,0,0.1c0-0.1,0-0.1,0,0c0,0.1,0,0.1,0.1,0.2c0,0.1,0,0.1,0,0.2
						c0-0.1,0,0.1,0,0.1c0.1,0.7-0.1,1.4-0.1,2.1c0,0.3,0.3,0.6,0.6,0.6c0.4,0,0.6-0.3,0.6-0.6c0.1-1.2,0.4-2.7-0.5-3.8
						c-1-1.1-2.7-0.7-3.6,0.3c-0.5,0.6-0.9,1.4-1.2,2.1c-0.1,0.3,0.1,0.7,0.4,0.8C198.9,277.5,199.1,277.3,199.3,277L199.3,277z"/>
				</g>
			</g>
			<g>
				<g>
					<path class="st3" d="M211.9,307.5c0.6,2.4-0.3,4.8-1.2,7c-0.9,2.2-1.6,4.4-2.8,6.4c-0.4,0.7,0.7,1.3,1.1,0.6
						c1.3-2.2,2.1-4.6,3-7c0.9-2.4,1.8-4.8,1.1-7.4C212.9,306.4,211.7,306.8,211.9,307.5L211.9,307.5z"/>
				</g>
			</g>
			<g>
				<g>
					<path class="st3" d="M185.5,297.4c2.1-6,8.4-9.1,12-14.1c0.5-0.6-0.6-1.3-1.1-0.6c-3.7,5.1-9.9,8.1-12.1,14.4
						C184,297.8,185.2,298.1,185.5,297.4L185.5,297.4z"/>
				</g>
			</g>
			<g>
				<g>
					<path class="st3" d="M210.9,258.9c-5.5,3.4-6.3,10.1-8.6,15.5c-0.3,0.7,0.8,1.4,1.1,0.6c2.3-5.1,3-11.9,8.2-15
						C212.2,259.6,211.6,258.5,210.9,258.9L210.9,258.9z"/>
				</g>
			</g>
			<g>
				<g>
					<path class="st3" d="M207.3,307.6c-1.4,2.1-2.2,4.4-2.4,6.9c0,0.3,0.3,0.6,0.6,0.6c0.4,0,0.6-0.3,0.6-0.6
						c0.2-2.2,1-4.4,2.2-6.3C208.9,307.6,207.8,307,207.3,307.6L207.3,307.6z"/>
				</g>
			</g>
			<g>
				<g>
					<path class="st3" d="M198.8,308.3c-0.6,1.8-0.6,3.8-0.2,5.7c0.1,0.3,0.5,0.5,0.8,0.4c0.3-0.1,0.5-0.4,0.4-0.8
						c-0.3-1.7-0.3-3.4,0.2-5C200.3,307.9,199.1,307.5,198.8,308.3L198.8,308.3z"/>
				</g>
			</g>
			<g>
				<g>
					<path class="st3" d="M190.5,322.7c0.1-2.4,0-4.8,0.5-7.1c0.5-2.2,1.7-4.2,2.6-6.2c0.3-0.7-0.7-1.4-1.1-0.6
						c-1,2.1-2.2,4.2-2.7,6.5c-0.6,2.4-0.5,5-0.5,7.5C189.2,323.5,190.4,323.5,190.5,322.7L190.5,322.7z"/>
				</g>
			</g>
			<g>
				<g>
					<path class="st3" d="M197.2,291.2c-3,4.9-4.1,10.6-5.2,16.2c-0.2,0.8,1.1,1.1,1.2,0.3c1-5.5,2.1-11.1,5-15.9
						C198.7,291.2,197.7,290.5,197.2,291.2L197.2,291.2z"/>
				</g>
			</g>
			<g>
				<g>
					<path class="st3" d="M199.6,290.6c2.1-2.5,4.1-4.9,6.3-7.3c2.2-2.3,4.5-4.7,7.1-6.5c0.3-0.2,0.8-0.6,1.2-0.4
						c0.5,0.2,0,0.8-0.2,1.1c-0.4,0.7-0.9,1.3-1.4,2c-0.9,1.3-1.8,2.6-2.4,4c-1.3,2.8-2,5.8-2.8,8.8c-0.2,0.8,1,1.1,1.2,0.3
						c0.7-2.8,1.4-5.6,2.5-8.2c0.6-1.3,1.2-2.4,2-3.6c0.8-1.1,1.8-2.2,2.3-3.5c0.4-0.9,0-1.8-1-2.1c-1.2-0.3-2.3,0.6-3.1,1.3
						c-2.2,1.7-4.3,3.7-6.2,5.8c-2.3,2.4-4.4,5-6.5,7.5C198.2,290.3,199.1,291.2,199.6,290.6L199.6,290.6z"/>
				</g>
			</g>
			<g>
				<g>
					<path class="st3" d="M215.4,277.3c0.7-0.4,1.5-0.7,2.2-1.2c0.6-0.4,1.3-0.9,1.8-1.3c1.2-1,2.3-2.1,3.4-3.3
						c-0.1,0.1-0.3,0.1-0.4,0.2c-0.2,0-0.1,0-0.1,0.2c0.1,0.2,0.1,0.4,0.2,0.5c0.1,0.3,0.2,0.6,0.3,0.9c0.2,0.7,0.4,1.4,0.4,2.1
						c0,0.7-0.2,1.2-0.4,1.8c-0.2,0.6-0.2,1.2,0.1,1.7c0.4,0.7,1.4,0.1,1.1-0.6c-0.3-0.6,0.3-1.4,0.4-2c0.2-0.8,0-1.6-0.2-2.4
						c-0.2-0.8-0.4-1.6-0.6-2.3c-0.2-0.6-0.7-1.5-1.5-1.1c-0.3,0.2-0.6,0.6-0.9,0.9c-0.2,0.3-0.5,0.5-0.8,0.8
						c-0.5,0.5-1.1,1.1-1.7,1.5c-0.6,0.5-1.2,0.9-1.8,1.3c-0.7,0.4-1.4,0.8-2.2,1.2C214.1,276.6,214.7,277.7,215.4,277.3
						L215.4,277.3z"/>
				</g>
			</g>
			<g>
				<g>
					<path class="st3" d="M223.6,286.1c-1,1.1-1.8,2.4-2.5,3.7c-0.7,1.1-1.4,2.3-1.8,3.5c-0.5,1.3-0.6,2.7-0.6,4.2
						c0,1.6,0,3.3,0.1,4.9c0,0.8,1.3,0.8,1.2,0c0-1.4,0-2.9-0.1-4.3c0-1.4,0-2.8,0.4-4.2c0.4-1.2,1.1-2.4,1.8-3.5
						c0.7-1.2,1.4-2.4,2.3-3.4C225,286.4,224.2,285.5,223.6,286.1L223.6,286.1z"/>
				</g>
			</g>
			<g>
				<g>
					<path class="st3" d="M203.1,301.2c1.9-3.5,4-6.9,7.2-9.4c2.8-2.3,6.1-4,8.6-6.7c1.2-1.3,2.1-2.7,3.3-4c0.3-0.3,1.5-1.8,2.1-1.7
						c0.5,0.1,0.3,1.2,0.2,1.4c-0.1,0.3-0.2,0.6-0.3,0.9c-0.2,0.5-0.4,0.9-0.7,1.4c-1.7,3.5-3.4,7-5.4,10.4c-2.3,3.9-4.9,7.7-8,11
						c-0.6,0.6,0.3,1.5,0.9,0.9c6.2-6.6,10.5-14.9,14.2-23.1c0.5-1.1,1.3-3.6-0.4-4.2c-1.4-0.4-3.1,1.6-3.9,2.5
						c-1.4,1.5-2.5,3.3-4.1,4.7c-1.7,1.5-3.6,2.7-5.4,4c-2,1.4-3.8,2.9-5.4,4.8c-1.6,2-2.8,4.2-4.1,6.4
						C201.6,301.3,202.7,301.9,203.1,301.2L203.1,301.2z"/>
				</g>
			</g>
			<g>
				<g>
					<path class="st3" d="M233.9,275.2c-3.1,1.2-6.7,1.5-9,4.1c-0.5,0.6,0.3,1.5,0.9,0.9c2.1-2.4,5.6-2.7,8.5-3.8
						C234.9,276.1,234.6,274.9,233.9,275.2L233.9,275.2z"/>
				</g>
			</g>
			<g>
				<g>
					<path class="st3" d="M224.1,272.5c0.8-1,1.8-1.9,2.8-2.7c0.4-0.3,2.4-2.1,2.7-1.1c0.1,0.2,0,0.6,0,0.8c0,0.4-0.1,0.7-0.1,1.1
						c-0.1,0.7-0.2,1.4-0.2,2.2c-0.2,1.4-0.3,2.9-0.5,4.3c-0.1,0.8,1.2,0.8,1.2,0c0.2-1.7,0.4-3.4,0.5-5c0.1-0.8,0.2-1.7,0.3-2.5
						c0.1-0.7,0.1-1.4-0.6-1.9c-1.3-1-2.7,0.2-3.7,0.9c-1.2,0.9-2.3,2-3.3,3.2C222.7,272.2,223.5,273.1,224.1,272.5L224.1,272.5z"/>
				</g>
			</g>
			<g>
				<g>
					<path class="st3" d="M231.1,264.9c1.5-0.7,3-1.2,4.7-1.5c0.3-0.1,0.5-0.5,0.4-0.8c-0.1-0.3-0.4-0.5-0.8-0.4
						c-1.7,0.3-3.4,0.9-5,1.7c-0.3,0.1-0.4,0.6-0.2,0.9C230.4,265,230.7,265.1,231.1,264.9L231.1,264.9z"/>
				</g>
			</g>
			<g>
				<g>
					<path class="st3" d="M230.3,260.7c-0.1,0.6-0.1,1.1-0.1,1.7c0,0.6-0.1,1.2-0.2,1.8c-0.2,1.2-0.6,2.4-1,3.5
						c-0.3,0.8,1,1.1,1.2,0.3c0.4-1.2,0.8-2.4,1-3.6c0.1-0.6,0.2-1.2,0.2-1.8c0-0.6,0-1.2,0.1-1.9c0-0.3-0.3-0.6-0.6-0.6
						C230.6,260,230.4,260.3,230.3,260.7L230.3,260.7z"/>
				</g>
			</g>
			<g>
				<g>
					<path class="st3" d="M223.1,264.6c0.6-0.5,1.5-0.4,2.2-0.2c0.3,0.1,0.7,0.2,0.6,0.6c-0.1,0.5-0.5,0.8-0.7,1.2
						c-0.5,0.8-0.6,1.7-0.8,2.5c-0.2,0.8-0.4,1.7-0.9,2.4c-0.2,0.3-0.3,0.6,0,0.9c0.2,0.2,0.7,0.3,0.9,0c0.7-0.9,1-2,1.3-3.1
						c0.1-0.5,0.2-1.1,0.4-1.6c0.2-0.5,0.7-1,0.9-1.5c0.3-0.6,0.4-1.2,0-1.8c-0.3-0.5-1-0.8-1.5-0.9c-1.1-0.3-2.3-0.2-3.2,0.6
						C221.6,264.3,222.5,265.2,223.1,264.6L223.1,264.6z"/>
				</g>
			</g>
			<g>
				<g>
					<path class="st3" d="M225.9,263.9c1.1-2.1,2-4.2,2.8-6.4c0.3-0.8-0.9-1.1-1.2-0.3c-0.7,2.1-1.6,4.2-2.7,6.1
						C224.5,264,225.6,264.6,225.9,263.9L225.9,263.9z"/>
				</g>
			</g>
			<g>
				<g>
					<path class="st3" d="M209.6,278c-0.7-2.4-0.5-5,0.4-7.3c1-2.4,2.9-4.1,5-5.6c2.2-1.5,4.5-3.2,7-4c0.5-0.2,1.6-0.7,1.7,0.3
						c0.1,0.6-0.7,1.2-1.1,1.7c-0.8,0.9-1.4,1.8-1.9,2.9c-1.3,2.5-1.9,5.2-2.5,7.9c-0.2,0.8,1,1.1,1.2,0.3c0.6-3,1.3-6,2.9-8.6
						c0.4-0.6,0.8-1.2,1.3-1.7c0.4-0.5,0.9-1,1.2-1.6c0.4-0.9,0.1-2.2-1-2.6c-1.2-0.4-3,0.5-4.1,1.1c-1.5,0.7-2.8,1.6-4.2,2.5
						c-2.4,1.6-4.8,3.4-6.3,6c-1.5,2.8-1.9,6.1-1,9.2C208.6,279.1,209.8,278.8,209.6,278L209.6,278z"/>
				</g>
			</g>
			<g>
				<g>
					<path class="st3" d="M217.2,252.4c0.3-0.3,0.9-0.1,1.2,0.1c0.5,0.2,0.9,0.6,1.2,1c0.6,0.7,1.3,1.6,0.6,2.5
						c-0.5,0.7-1.2,1.2-1.5,2.1c-0.4,1-0.2,2.2,0,3.2c0.1,0.8,1.3,0.5,1.2-0.3c-0.1-0.6-0.2-1.3-0.2-1.9c0.1-0.6,0.3-1,0.7-1.4
						c0.7-0.8,1.5-1.6,1.3-2.8c-0.2-1.2-1.2-2.4-2.1-3.1c-0.9-0.7-2.3-1.1-3.3-0.3C215.7,252,216.6,252.9,217.2,252.4L217.2,252.4z"
						/>
				</g>
			</g>
			<g>
				<g>
					<path class="st3" d="M217.4,248.8c-1.2,3.8-4.7,6.2-6.2,9.8c-0.3,0.8-0.6,1.5-0.6,2.4c-0.1,1,0.2,2,0.1,3
						c-0.1,1.1-0.6,2.3-1,3.3c-0.3,1-0.7,2.1-1,3.1c-0.3,0.8,1,1.1,1.2,0.3c0.7-2,1.6-4.1,2-6.3c0.2-1-0.1-1.9-0.1-2.8
						c0-1.1,0.3-2.1,0.8-3c1.7-3.4,4.9-5.8,6.1-9.6C218.8,248.4,217.6,248,217.4,248.8L217.4,248.8z"/>
				</g>
			</g>
			<g>
				<g>
					<path class="st3" d="M207.4,255.4c1.3,1.4,2,3.4,1.2,5.2c-0.1,0.3,0.1,0.7,0.4,0.8c0.4,0.1,0.6-0.1,0.8-0.4
						c0.9-2.2,0-4.8-1.6-6.4C207.7,254,206.9,254.8,207.4,255.4L207.4,255.4z"/>
				</g>
			</g>
			<g>
				<g>
					<g>
						<path class="st27" d="M177,354.8c-0.6-0.4-1.2-0.8-1.7-1.2c0.1,0.1,0.3,0.2,0.4,0.3c-1.2-1-2.4-2.1-3.3-3.3
							c0.1,0.1,0.2,0.3,0.3,0.4c-0.1-0.1-0.1-0.2-0.2-0.3c-0.3-0.4-0.6-0.7-1.1-0.9c-0.4-0.1-1-0.1-1.4,0.2
							c-0.4,0.3-0.8,0.6-0.9,1.1c-0.1,0.5-0.1,1,0.2,1.4c1.6,2.2,3.6,4.1,6,5.5c0.8,0.5,2.1,0.2,2.6-0.7
							C178.2,356.4,177.9,355.3,177,354.8L177,354.8z"/>
					</g>
				</g>
				<g>
					<g>
						<path class="st27" d="M165.8,347.3c1.5,1.5,3.3,2.6,5.2,3.6c0.9,0.4,1.8,0.9,2.6,1.3c0.4,0.2,0.9,0.5,1.3,0.8
							c0.2,0.1,0.4,0.3,0.7,0.4c0.1,0.1,0.2,0.1,0.3,0.2c0,0,0.5,0.3,0.1,0.1c0.8,0.6,1.9,0.8,2.7,0c0.6-0.7,0.8-2,0-2.7
							c-1.7-1.3-3.5-2.3-5.5-3.3c-0.9-0.4-1.7-0.9-2.6-1.4c-0.2-0.1-0.4-0.3-0.7-0.4c-0.1-0.1-0.2-0.2-0.3-0.2c-0.2-0.1-0.1-0.1,0,0
							c-0.4-0.3-0.8-0.7-1.2-1c-0.7-0.7-2-0.7-2.7,0C165.1,345.4,165.1,346.5,165.8,347.3L165.8,347.3z"/>
					</g>
				</g>
				<g>
					<g>
						<path class="st27" d="M177.9,353.5c-2-1.3-3.9-2.5-5.9-3.8c-0.2-0.1-0.4-0.3-0.6-0.4c-0.1-0.1-0.2-0.1,0,0
							c-0.1-0.1-0.2-0.2-0.3-0.3c-0.4-0.3-0.7-0.7-1-1c0,0-0.2-0.3-0.1-0.1c0.1,0.2-0.1-0.2-0.1-0.2c-0.1-0.2-0.3-0.4-0.4-0.6
							c-0.1-0.2-0.2-0.4-0.3-0.7c0-0.1-0.1-0.2-0.1-0.3c0.2,0.4,0-0.1-0.1-0.2c-0.3-0.9-1.3-1.6-2.3-1.3c-0.9,0.3-1.7,1.3-1.3,2.3
							c0.9,2.4,2.4,4.3,4.5,5.8c2.1,1.4,4.2,2.7,6.3,4c0.8,0.5,2.1,0.2,2.6-0.7C179,355.1,178.8,354,177.9,353.5L177.9,353.5z"/>
					</g>
				</g>
				<g>
					<g>
						<path class="st27" d="M196.4,279.3c9.1,5,19,8.5,29.2,10.2c2.4,0.4,3.4-3.2,1-3.6c-9.9-1.7-19.4-5.1-28.3-9.9
							C196.2,274.9,194.3,278.2,196.4,279.3L196.4,279.3z"/>
					</g>
				</g>
				<g>
					<g>
						<path class="st27" d="M196,281.5c1.8,14.6,4.8,29.1,8.9,43.2c0.7,2.3,4.3,1.3,3.6-1c-4-13.8-7-27.9-8.8-42.2
							c-0.1-1-0.8-1.9-1.9-1.9C196.9,279.7,195.9,280.5,196,281.5L196,281.5z"/>
					</g>
				</g>
				<g>
					<g>
						<path class="st27" d="M180.8,312.7c13.3-1.3,26.4-3.6,39.3-7c2.3-0.6,1.3-4.2-1-3.6c-12.6,3.3-25.4,5.6-38.3,6.9
							c-1,0.1-1.9,0.8-1.9,1.9C178.9,311.8,179.8,312.8,180.8,312.7L180.8,312.7z"/>
					</g>
				</g>
				<g>
					<g>
						<path class="st27" d="M171.4,332.9c11.9-1.1,23.8-3.2,35.4-6.3c2.3-0.6,1.3-4.2-1-3.6c-11.3,2.9-22.8,5-34.4,6.1
							C169,329.4,169,333.2,171.4,332.9L171.4,332.9z"/>
					</g>
				</g>
				<g>
					<g>
						<path class="st27" d="M169.7,332.8c1.4,6.8,3.3,13.5,5.8,20c0.4,0.9,1.3,1.6,2.3,1.3c0.9-0.2,1.7-1.4,1.3-2.3
							c-2.5-6.5-4.4-13.2-5.8-20C172.8,329.4,169.2,330.4,169.7,332.8L169.7,332.8z"/>
					</g>
				</g>
				<g>
					<g>
						<path class="st27" d="M194.7,280.6c9.3,5.6,19.5,9.7,30.1,12.2c2.3,0.5,3.4-3.1,1-3.6c-10.3-2.4-20.1-6.4-29.2-11.8
							C194.5,276.1,192.6,279.4,194.7,280.6L194.7,280.6z"/>
					</g>
				</g>
			</g>
			<g>
				<g>
					<g>
						<path class="st28" d="M177.2,354.8c-0.5-0.3-1-0.6-1.5-1c0,0-0.1-0.1-0.1-0.1c-0.2-0.2,0.1,0.1,0,0c-0.1-0.1-0.2-0.2-0.3-0.3
							c-0.2-0.2-0.5-0.4-0.7-0.6c-0.4-0.4-0.8-0.8-1.2-1.2c-0.2-0.2-0.4-0.4-0.6-0.7c-0.1-0.1-0.2-0.2-0.3-0.3c-0.1-0.1-0.1-0.1,0,0
							c-0.1-0.1-0.1-0.1-0.2-0.2c-0.2-0.3-0.4-0.5-0.7-0.6c-0.3-0.1-0.7,0-1,0.1c-0.5,0.3-0.9,1.2-0.4,1.7c1.6,2.1,3.5,3.9,5.7,5.3
							c0.6,0.3,1.4,0.1,1.7-0.4C177.9,355.9,177.8,355.2,177.2,354.8L177.2,354.8z"/>
					</g>
				</g>
				<g>
					<g>
						<path class="st28" d="M166.7,346.3c1.4,1.5,3.2,2.5,5.1,3.5c1.7,0.9,3.6,1.7,5.1,2.9c0.5,0.4,1.2,0.5,1.8,0
							c0.4-0.4,0.5-1.3,0-1.8c-1.6-1.3-3.5-2.2-5.3-3.2c-1.7-0.9-3.5-1.8-4.8-3.2C167.3,343.4,165.6,345.2,166.7,346.3L166.7,346.3z
							"/>
					</g>
				</g>
				<g>
					<g>
						<path class="st28" d="M178,353.5c-2-1.2-3.9-2.5-5.9-3.8c-1.6-1-2.8-2.4-3.5-4.2c-0.2-0.6-0.8-1.1-1.5-0.9
							c-0.6,0.2-1.1,0.9-0.9,1.5c0.9,2.2,2.3,4,4.2,5.4c2.1,1.4,4.2,2.7,6.3,4C178.1,356.5,179.4,354.4,178,353.5L178,353.5z"/>
					</g>
				</g>
				<g>
					<g>
						<path class="st28" d="M196.9,278.7c9.1,4.9,18.9,8.4,29,10.2c1.6,0.3,2.2-2.1,0.7-2.4c-9.9-1.8-19.5-5.1-28.4-10
							C196.7,275.8,195.5,277.9,196.9,278.7L196.9,278.7z"/>
					</g>
				</g>
				<g>
					<g>
						<path class="st28" d="M196.8,281.5c1.9,14.5,4.9,28.8,9,42.9c0.5,1.5,2.9,0.9,2.4-0.7c-4.1-13.8-7.1-27.9-8.9-42.2
							C199.1,279.9,196.6,279.9,196.8,281.5L196.8,281.5z"/>
					</g>
				</g>
				<g>
					<g>
						<path class="st28" d="M181.1,311.8c13.2-1.2,26.2-3.5,39.1-6.8c1.6-0.4,0.9-2.8-0.7-2.4c-12.6,3.2-25.4,5.5-38.4,6.7
							C179.5,309.5,179.5,312,181.1,311.8L181.1,311.8z"/>
					</g>
				</g>
				<g>
					<g>
						<path class="st28" d="M171.8,331.9c11.9-1.1,23.6-3.2,35.1-6.1c1.6-0.4,0.9-2.8-0.7-2.4c-11.3,2.9-22.8,4.9-34.5,6
							C170.2,329.6,170.2,332.1,171.8,331.9L171.8,331.9z"/>
					</g>
				</g>
				<g>
					<g>
						<path class="st28" d="M170.7,332.2c1.4,6.8,3.4,13.4,5.8,19.9c0.6,1.5,3,0.8,2.4-0.7c-2.5-6.5-4.4-13.1-5.8-19.9
							C172.8,330,170.4,330.7,170.7,332.2L170.7,332.2z"/>
					</g>
				</g>
				<g>
					<g>
						<path class="st28" d="M195.2,280c9.3,5.6,19.4,9.7,29.9,12.1c1.6,0.4,2.2-2,0.7-2.4c-10.3-2.4-20.2-6.4-29.3-11.9
							C195.1,277,193.9,279.2,195.2,280L195.2,280z"/>
					</g>
				</g>
			</g>
		</g>
		<path class="st21" d="M363.8,123.3c3.1-2.2,24.7-18,22.2-34.7c-2.7-18.2-31.3-29.5-52.6-30.3C300.9,57,278,79.9,272.1,85.9
			c-19.4,19.5-31.9,49-31.7,76.8c0.1,13.8,3.3,21.4-0.7,36.4c-5.8,22.1-20,33-17.5,35.7c2.7,2.8,22-5.4,32.4-22.2
			c6.8-11,4.2-16.9,10.8-34.4c3-8,8.2-20.5,16.2-29.7C301.1,126.4,332,145.8,363.8,123.3z"/>
		<path class="st21" d="M377.9,214.6c10.9-13,31.4-44.6,19.5-62.7c-6.3-9.7-19.5-12.1-31-14.2c-4.2-0.8-19.7-3.2-39.1,2.7
			c-7.8,2.4-41.8,12.8-48.5,37.7c-3.8,14.1,5,18.6,0.7,33c-6.5,21.8-32.4,31.2-31,33.7c1,1.8,12.8-6.4,29-7.4
			c19.3-1.2,24.9,8.7,41.1,10.1C348.2,250.3,372.6,221,377.9,214.6z"/>
		<rect x="297.9" y="165.7" class="st22" width="92.8" height="67.8"/>
		<text transform="matrix(1 0 0 1 297.9027 182.9094)"><tspan x="0" y="0" class="st23 st24 st25">og Indre </tspan><tspan x="0" y="29.1" class="st23 st24 st25">fred</tspan></text>
		<path id="SVGID_x5F_1_x5F_" class="st22" d="M229,173.7c18.9-2,33.9-16.3,46.2-30.7c12.3-14.5,24.1-30.5,41.4-38.3
			c12.2-5.5,26.1-6.4,39.4-5.3c21.5,1.7,44.3,9.4,55.8,27.5"/>
		<text>		<textPath  xlink:href="#SVGID_x5F_1_x5F_" startOffset="34.3085%">
<tspan  class="st23 st24 st25">Healing</tspan>		</textPath>
</text>
	</g>
	<g>
		<path class="st29" d="M326.9,625.8c0,1.7-4.2,3.1-7.2,4.1c-6.1,2-11.1,2.1-11.8,2.1c-7,0-18.8-1.6-19.5-5.9
			c-0.2-1.3,0.5-2.9,1.5-3.3c1.6-0.7,3.1,1.7,6.4,1.7c1.9,0,2.2-0.9,4.4-1.2c2.8-0.4,4,0.6,6.7,1c5.5,0.9,6.6-2.6,12.3-2.1
			C323.1,622.5,326.9,624.1,326.9,625.8z"/>
		<path class="st30" d="M323.6,626.4c0.2,1.3-7.6,4.2-15.9,4.3c-8.5,0.1-16.5-2.8-16.3-4.1c0.2-1.1,6.9-1.2,15.9-1.2
			C316.2,625.3,323.3,625.2,323.6,626.4z"/>
		<path class="st31" d="M326.9,703.9h-39v-77.1c2.7,1.7,9.8,5.7,19.5,5.7c3.2,0,11.3-0.4,19.5-5.7
			C326.9,652.5,326.9,678.2,326.9,703.9z"/>
		<g>
			<g>
				<g>
					<path class="st32" d="M317,632.8c2.1,1.9,1.8,5,1.3,7.6c-0.7,3.1-1.4,6.2-1.3,9.5c0,1.5,0.3,3,0.8,4.4c0.6,1.5,1.3,2.8,1.7,4.4
						c0.7,3.1,0.1,6.4-0.4,9.5c-0.3,1.9,2.6,2.7,2.9,0.8c0.6-3.4,1.1-6.8,0.6-10.2c-0.3-1.6-0.9-3.1-1.5-4.6c-0.8-1.7-1-3.3-1-5.1
						c0.1-3.6,1.2-6.9,1.6-10.4c0.3-2.8-0.3-5.9-2.5-7.8C317.7,629.3,315.5,631.5,317,632.8L317,632.8z"/>
				</g>
			</g>
			<g>
				<path class="st32" d="M321.2,661.6c-0.7,3.2-1.3,6.3-2,9.5c-0.1,0.4-0.2,0.8,0,1.2c0.1,0.3,0.4,0.5,0.6,0.6
					c0.4,0.3,0.9,0.6,1.4,0.6s1.1-0.1,1.4-0.6c0.2-0.4,0.2-1,0.1-1.5c-0.2-1.3-0.4-2.5-0.7-3.8"/>
				<g>
					<path class="st32" d="M319.7,661.2c-0.4,2.1-0.9,4.2-1.3,6.3c-0.2,1.1-0.5,2.2-0.7,3.2c-0.2,1.2-0.2,2.3,0.8,3.1
						c0.8,0.7,1.8,1.3,2.9,1.3c1,0,2-0.5,2.5-1.5c0.5-1,0.3-2.1,0.1-3.2c-0.2-1-0.4-2.1-0.6-3.1c-0.2-0.8-1.1-1.3-1.8-1
						c-0.8,0.2-1.2,1-1,1.8c0.1,0.7,0.3,1.5,0.4,2.2c0.1,0.4,0.1,0.7,0.2,1.1c0,0.1,0,0.8,0.1,0.8c-0.1,0,0.2-0.2,0.2-0.2
						c-0.1,0.1-0.2,0,0,0c0,0-0.2,0-0.2,0c-0.2-0.1-0.5-0.3-0.7-0.4c-0.4-0.2,0,0,0,0c0-0.1,0-0.2,0.1-0.3c0.6-3.1,1.3-6.3,1.9-9.4
						c0.2-0.8-0.2-1.6-1-1.8C320.8,659.9,319.9,660.4,319.7,661.2L319.7,661.2z"/>
				</g>
			</g>
			<g>
				<g>
					<path class="st33" d="M322.6,673.2c0.9-1.4,0.5-3.1-0.1-4.6c-0.2-0.4-0.5-0.7-0.9-0.5c-0.3,0.1-0.7,0.5-0.5,0.9
						c0.1,0.3,0.3,0.6,0.4,1c0.1,0.2,0.1,0.3,0.1,0.5c0,0.1,0,0.2,0,0.3c0,0.1,0,0,0,0c0,0,0,0.1,0,0.1c0,0.2,0,0.3,0,0.5
						c0,0.1,0,0.1,0,0.2c0,0.1,0,0.1,0,0c0,0,0,0.1,0,0.1c0,0.2-0.1,0.3-0.1,0.5c0,0.1,0.1-0.1,0,0.1c0,0.1-0.1,0.2-0.1,0.2
						c-0.2,0.3-0.1,0.8,0.3,1C322,673.7,322.4,673.6,322.6,673.2L322.6,673.2z"/>
				</g>
			</g>
			<g>
				<g>
					<path class="st33" d="M319.3,633.6c0.5,1.5,0.6,3.1,0.4,4.7c0,0.2,0.2,0.4,0.4,0.4c0.2,0,0.4-0.2,0.4-0.4
						c0.2-1.7,0-3.3-0.4-4.9C319.9,632.9,319.2,633.1,319.3,633.6L319.3,633.6z"/>
				</g>
			</g>
			<g>
				<g>
					<path class="st33" d="M321.4,660.6c0.1-1.6-0.3-3.3-1-4.7c-0.2-0.4-0.9,0-0.6,0.4c0.7,1.3,1,2.8,0.9,4.4
						C320.6,661.1,321.3,661.1,321.4,660.6L321.4,660.6z"/>
				</g>
			</g>
		</g>
		<g>
			<g>
				<path class="st34" d="M308.4,627.8c0.3-1.5,0.4-3-0.1-4.5c-0.4-1.3-1.2-2.6-2-3.8c-0.5-0.8-1.8-0.1-1.3,0.8
					c0.7,1,1.4,2.1,1.8,3.3c0.4,1.3,0.4,2.5,0.2,3.8c-0.1,0.4,0.1,0.8,0.5,0.9C307.8,628.4,308.3,628.2,308.4,627.8L308.4,627.8z"/>
			</g>
		</g>
		<g>
			<path class="st35" d="M309.3,618c-1.1,2.3-5.1,3.6-7,2.2c-1.4-1.1-1.3-3.3-1.2-5.6c0.3-4.9,2.5-10.3,4-10.1
				c0.5,0.1,0.7,0.8,2.2,5.3C309.4,616.1,309.8,616.9,309.3,618z"/>
			<g>
				<g>
					<path class="st36" d="M303.8,605.7c-2.6,3.5-3.5,8.2-2.5,12.4c0.2,0.8,1.1,1.3,1.8,1c0.8-0.2,1.2-1.1,1-1.8
						c-0.8-3.5,0-7.2,2.2-10.1c0.5-0.6,0.1-1.7-0.5-2.1C305.1,604.7,304.3,605.1,303.8,605.7L303.8,605.7z"/>
				</g>
			</g>
			<g>
				<g>
					<path class="st37" d="M304.3,606.2c-0.5,1.1-1.3,2-1.5,3.2c-0.1,0.4,0.1,0.8,0.5,0.9c0.4,0.1,0.8-0.1,0.9-0.5
						c0-0.1,0.1-0.3,0.1-0.4c0-0.1,0-0.1,0.1-0.2c0,0,0-0.1,0-0.1c0,0-0.1,0.1,0,0c0.1-0.3,0.2-0.5,0.4-0.7c0.3-0.5,0.6-0.9,0.8-1.5
						c0.1-0.2,0.1-0.4,0.1-0.6c0-0.2-0.2-0.4-0.3-0.4C305,605.8,304.5,605.8,304.3,606.2L304.3,606.2z"/>
				</g>
			</g>
			<g>
				<g>
					<path class="st37" d="M301.9,612.6c-0.2,1-0.2,2.1-0.1,3.1c0,0.2,0.2,0.4,0.3,0.4c0.2,0.1,0.4,0.1,0.6,0.1
						c0.4-0.1,0.6-0.5,0.5-0.9c0-0.1,0-0.1,0-0.2c0,0,0-0.1,0-0.1c0,0.1,0,0.1,0,0.1c0-0.1,0-0.2,0-0.3c0-0.2,0-0.4,0-0.7
						c0-0.2,0-0.4,0-0.7c0,0,0-0.1,0-0.1c0-0.1,0,0,0,0.1c0,0,0-0.1,0-0.2c0-0.1,0-0.2,0.1-0.4c0.1-0.4-0.1-0.8-0.5-0.9
						C302.5,612,302,612.2,301.9,612.6L301.9,612.6z"/>
				</g>
			</g>
		</g>
		<g>
			<g>
				<g>
					<path class="st32" d="M305.7,634.6c1.8,1,1.4,2.4,0.8,4c-0.7,1.8-1.3,3.7-1.1,5.7c0.1,1,0.4,1.9,0.9,2.7c0.4,0.7,1,1.3,1.4,2
						c0.9,1.8,0.2,3.8-0.3,5.6c-0.5,1.9,2.4,2.7,2.9,0.8c0.6-2.1,1.2-4.4,0.6-6.5c-0.3-1.1-0.9-2-1.6-2.9c-0.7-0.9-0.9-1.7-0.9-2.8
						c0.1-2.3,1.6-4.3,1.7-6.6c0.1-2-1.1-3.7-2.9-4.6C305.6,631.1,304,633.7,305.7,634.6L305.7,634.6z"/>
				</g>
			</g>
			<g>
				<path class="st32" d="M309.7,651c-0.7,1.9-1.3,3.8-2,5.6c-0.1,0.2-0.2,0.5,0,0.7c0.1,0.2,0.4,0.3,0.6,0.4
					c0.4,0.2,0.9,0.3,1.4,0.4c0.5,0,1.1-0.1,1.4-0.4c0.2-0.3,0.2-0.6,0.1-0.9c-0.2-0.8-0.4-1.5-0.7-2.2c-0.9-2.6-1.8-5.3-2.6-7.9"/>
				<g>
					<path class="st32" d="M308.2,650.6c-0.4,1-0.7,2.1-1.1,3.1c-0.2,0.6-0.4,1.1-0.6,1.7c-0.2,0.5-0.4,1-0.4,1.5
						c-0.1,1.4,1.1,2.1,2.3,2.4c1,0.3,2.3,0.4,3.3-0.2c1.2-0.7,1.2-2,0.9-3.2c-0.3-1.1-0.7-2.1-1-3.1c-0.7-2.2-1.5-4.4-2.2-6.5
						c-0.3-0.8-1-1.3-1.8-1c-0.8,0.2-1.3,1.1-1,1.8c0.5,1.6,1.1,3.3,1.6,4.9c0.5,1.6,1.2,3.3,1.6,4.9c0,0.1,0.1,0.2,0.1,0.3
						c0,0,0-0.1,0-0.1c0,0,0.4-0.7,0.4-0.6c0,0-0.5,0-0.6,0c-0.2,0-0.8-0.3-0.9-0.3c0.2-0.1,0.2,1.5,0.5,0.7
						c0.1-0.2,0.1-0.4,0.2-0.6c0.6-1.6,1.1-3.3,1.7-4.9c0.3-0.8-0.3-1.6-1-1.8C309.2,649.3,308.5,649.8,308.2,650.6L308.2,650.6z"/>
				</g>
			</g>
			<g>
				<g>
					<path class="st33" d="M311,658.2c0.4-0.4,0.7-1,0.6-1.6c0-0.4-0.1-0.7-0.3-1c-0.1-0.2-0.3-0.5-0.4-0.7
						c-0.1-0.2-0.2-0.3-0.4-0.3c-0.2,0-0.4,0-0.6,0.1c-0.3,0.2-0.5,0.7-0.3,1c0.2,0.2,0.3,0.5,0.5,0.8c0-0.1-0.1-0.1-0.1-0.2
						c0.1,0.1,0.1,0.3,0.1,0.5c0-0.1,0-0.1,0-0.2c0,0.1,0,0.3,0,0.4c0-0.1,0-0.1,0-0.2c0,0.1,0,0.2-0.1,0.3c0-0.1,0.1-0.1,0.1-0.2
						c0,0.1-0.1,0.2-0.2,0.3c0-0.1,0.1-0.1,0.1-0.2c-0.1,0.1-0.1,0.1-0.2,0.2c-0.3,0.3-0.3,0.8,0,1.1
						C310.2,658.5,310.7,658.5,311,658.2L311,658.2z"/>
				</g>
			</g>
			<g>
				<g>
					<path class="st33" d="M307.8,634.5c0.4,0.8,0.5,1.7,0.4,2.6c0,0.2,0.1,0.4,0.3,0.5c0.2,0.1,0.4-0.1,0.5-0.3
						c0.2-1.1,0-2.2-0.5-3.1c-0.1-0.2-0.3-0.2-0.5-0.1C307.8,634.1,307.7,634.4,307.8,634.5L307.8,634.5z"/>
				</g>
			</g>
		</g>
		<g>
			<path class="st21" d="M324.7,464.7c8.6-6.5,20.2-15.2,31.7-12.1c13.1,3.5,17,19.6,18.9,18.9c3.9-1.6-1.1-71.9-38.4-81.6
				c-22.5-5.8-47.6,13-59.3,29.7c-8.1,11.5-10.5,23.6-14.2,42.5c-1.9,9.7-4.4,23.3-3.4,41.1c1.5,24.8,9.1,42.2,17.5,61.3
				c7.8,17.8,14.6,26.7,15.5,26.3c1-0.5-6.9-12.1-2.7-22.2c3.2-7.7,10.6-7.9,11.5-14.2c0.8-6.3-6.5-9-10.2-17.2
				c-4.6-10.2-0.3-21.1,4.8-34C299.2,495.9,306.5,478.4,324.7,464.7z"/>
			<path class="st21" d="M314,485.4c7.9-10.4,28.2-31.2,43.9-25.4c8.4,3.1,12.4,12.6,16,20.9c1.3,3.1,5.8,14.3,4.7,29.9
				c-0.5,6.2-2.5,33.7-20.1,43c-10,5.3-14.9-0.5-25,5.1c-15.3,8.6-17.9,29.7-20.1,29.1c-1.6-0.5,2.6-10.7,0.6-23.1
				c-2.4-14.7-10.8-17.3-14.6-29.2C292.2,513.9,310.1,490.5,314,485.4z"/>
		</g>
		<rect x="326" y="503" class="st22" width="36.4" height="30.4"/>
		<text transform="matrix(1 0 0 1 325.9799 520.2521)" class="st23 st24 st25">Ro</text>
		<path id="SVGID_x5F_00000163782274922632490220000013406363910841468836_x5F_" class="st22" d="M243.9,531.5
			c18.1-5.7,30-22.7,39.2-39.3c9.2-16.6,17.6-34.7,32.9-45.8c10.9-7.8,24.3-11.4,37.6-13c21.4-2.6,45.2,0.4,60.2,15.9"/>
		<text>		<textPath  xlink:href="#SVGID_x5F_00000163782274922632490220000013406363910841468836_x5F_" startOffset="34.3085%">
<tspan  class="st23 st24" style="font-size:24.2647px;">Hygge</tspan>		</textPath>
</text>
	</g>
	<g>
		<g>
			<path class="st38" d="M968.6,369.7h-29.7c-7.5,0-13.6-6.1-13.6-13.6V312c0,0,0-0.5,0-0.5c0-3.9,0-3.9,0-3.9
				c0.3-2.4,14.4-2.5,26.8-3.9c0,0,9.1-1.1,17.7-0.7c2.7,0.1,0.9,0.2,12.4,1.3c5.5,0.5,8.1,0.7,11.8,2c2.6,0.9,5.4,2,7.8,4.6
				c4.3,4.5,5.1,11.2,3.9,16.4c-1.4,5.9-5.4,9.5-7.2,11.1c-2.2,2-3.3,2.2-5.3,3.4c0,0-1,0.6-2.6,1.8c-4.2,3.2-6.6,8.3-7.8,7.8
				c-0.6-0.2-0.2-1.3-0.7-7.2c0,0-0.1-0.9,0-2.6c0.1-2,0.1-3,0.7-3.3c0.6-0.3,1.2,0.9,2.6,1.3c1.5,0.4,3-0.6,5.2-2
				c1.7-1.1,4-2.4,5.9-5.2c0.8-1.1,2.2-3.3,2.6-6.5c0.1-1.1,0.6-5.8-2.6-9.8c-0.5-0.6-4.1-5.1-8.5-4.6c-2.9,0.3-5.1,2.7-5.9,2
				c-0.3-0.3-0.2-1,0-1.5c1.1,2.3,0,21.4,0,44.1C982.2,363.6,976,369.7,968.6,369.7z"/>
			<path class="st38" d="M982.8,308.2h-57.6c0-4.8,0-9.6,0-14.4c7,1.9,16.6,3.9,28.1,3.9c12.1,0.1,22.2-1.9,29.4-3.9
				C982.8,298.6,982.8,303.4,982.8,308.2z"/>
			<path class="st39" d="M982.8,293.8c-0.2,0.7-1.1,2.3-11.1,3.3c-8.4,0.8-16.9,0.7-17,0.7c0,0,0,0,0,0c-10.2-0.1-13.9-0.4-16.4-0.7
				c-11.5-1.2-12.7-2.4-13.1-3.3c-0.4-0.9-0.1-1.7,0-2c0.6-1.9,3.2-3.5,13.1-4.6c0.4,0,0.9-0.1,1.5-0.2c7.7-0.7,14.1-0.5,15.5-0.5
				c22.7,0.7,25.9,4.1,26.8,5.2C982.9,292.9,982.9,293.5,982.8,293.8z"/>
			<path class="st40" d="M969,369.1c-25.9,0.4-32.6,0.3-32.6,0c0-0.3,6.1-1,13.7-2c3.6-0.4,6-0.7,9.2-2c2.3-0.9,5.4-2.2,7.2-5.2
				c1.2-2.1,1.3-4.2,1.3-5.2c0.6-33.8,0.9-50.7,0.4-52.4c-0.1-0.5-0.6-2.1,0.2-3.2c1-1.3,2.9-0.8,6.5-1.3c4.8-0.7,6.1-2.2,7.2-1.3
				c2,1.6-1.1,7.5,0.7,8.5c0.6,0.4,1.2-0.2,2.6-0.7c2.9-0.9,5.5,0.1,8.6,1.3c2.5,0.9,5.3,2,7.8,4.6c4.2,4.5,5.1,11.2,3.9,16.4
				c-1.4,5.9-5.3,9.5-7.1,11.1c-2.2,2-3.2,2.2-5.2,3.4c0,0-1,0.6-2.5,1.8c-4.2,3.2-6.5,8.3-7.8,7.8c-0.6-0.2-0.2-1.3-0.6-7.2
				c0,0-0.1-0.9,0-2.6c0.1-2,0.1-3,0.6-3.3c0.6-0.3,1.2,0.9,2.6,1.3c1.5,0.4,2.9-0.6,5.2-2c1.7-1.1,3.9-2.4,5.8-5.2
				c0.7-1.1,2.2-3.3,2.6-6.5c0.1-1.1,0.6-5.8-2.6-9.8c-0.5-0.6-4.1-5.1-8.4-4.6c-2.9,0.3-5.1,2.7-5.8,2c-0.3-0.3-0.2-1,0-1.5
				c1.1,2.3,0,21.4,0,44.1C982.4,362.9,976.4,369.1,969,369.1z"/>
			<line class="st41" x1="931.1" y1="301.7" x2="931.1" y2="340.9"/>
			<path class="st42" d="M979.9,292.9c0,0.8-4.3,1.4-8.5,2c-2.9,0.4-6.5,0.7-17.7,0.7c-10.5-0.1-13.5-0.4-15-0.7
				c-2.8-0.4-11.1-1.4-11.1-2.6c0-1.5,14-2.8,26.2-2.6C966.1,289.7,979.9,291.4,979.9,292.9z"/>
		</g>
		<path class="st21" d="M971.9,151.4c13.2-22.9-31.3-78.5-42.6-73.6c-6.5,2.8,4.9,22.8-7.4,46.5c-8,15.4-17.5,15.9-23.6,31.7
			c-5.5,14.2-3.1,27.4-1.3,37.1c2.5,13.5,6.1,16.7,27.8,58.1c8.4,16.1,13.9,27.1,15.5,26.3c1.4-0.7-1.6-8.5-2.7-22.2
			c-0.8-10.1-0.2-17.4,1.2-31.3c1.4-13.9,0.3-22.6,4.8-34c0.5-1.3,0.9-2.3,1.2-2.9C953.4,167.6,967.3,159.3,971.9,151.4z"/>
		<path class="st21" d="M952.2,201.8c6.7-18.6,17-17.3,27.6-37.1c10.5-19.6,7.7-34.5,12.8-35c5.7-0.6,14.3,17.7,16.2,35
			c2.1,19-2.4,49.5-20.2,60.7c-3.6,2.3-9.3,4.8-13.5,11.5c-3.7,5.9-3.2,10.4-4.7,16.9c-3.7,16.8-16.5,30.5-20.1,29.1
			c-2.2-0.9,0.8-7.7,0.6-23.1c-0.1-13.3-2.4-16.1-2.8-27.6C948,227.6,947.6,214.6,952.2,201.8z"/>
		<path id="SVGID_x5F_00000100371569672210427230000009648085559669027491_x5F_" class="st22" d="M929.3,217
			c-4.1-17.4-7.7-37.7,3.5-51.7c3.3-4.1,7.7-7.3,11.1-11.3c11.6-13.3,11.6-33.4,6.3-50.2"/>
		<text>		<textPath  xlink:href="#SVGID_x5F_00000100371569672210427230000009648085559669027491_x5F_" startOffset="2.3627%">
<tspan  class="st23 st24" style="font-size:24.2645px;">Fællesskab</tspan>		</textPath>
</text>
		<path id="SVGID_x5F_00000161624819104890374600000000304441380835603078_x5F_" class="st22" d="M967.7,251.4
			c-0.6-14.5-0.3-31.2,10.7-40.6c3.3-2.8,7.2-4.7,10.6-7.3c11.2-8.8,14.3-24.8,12.7-38.9"/>
		<text>		<textPath  xlink:href="#SVGID_x5F_00000161624819104890374600000000304441380835603078_x5F_" startOffset="12.2397%">
<tspan  class="st23 st24" style="font-size:19.6475px;">Filmafter</tspan>		</textPath>
</text>
	</g>
	<g>
		<g>
			<path class="st43" d="M698.7,469.5c2.1,4.8,5.8,4.2,12.3,9.5c5.7,4.6,4.1,6.1,14,16.4c3.1,3.3,3.1,3,7.4,7.4
				c3.7,3.9,4.3,4.8,6.2,5.8c3,1.6,5,1.1,10.3,1.6c7.8,0.8,12.2,1.2,13.6,3.7c2.6,4.9-8.2,14-5.8,17.3c1.1,1.5,3.5-0.1,7.8,0.8
				c5.3,1.1,11.5,5.4,13.2,11.9c1.7,6.7-2.2,12.4-2.5,12.7c-2.8,3.9-6.8,5.4-20.5,8.6c-11,2.6-16.5,3.9-20.5,4.5
				c-12.6,1.9-18.7,1.5-40.3,2.1c-10.6,0.3-5.4,0.3-31.6,1.2c-38.7,1.4-37.2,0.9-38.2,1.2c-4.5,1.3-11.1,3.6-16.4,0.4
				c-3.2-1.9-7.8-7-7.8-7l0,0c0,0-31.5,1.2-32.9,1.2c0,0-28,0.5-48.1-5.8c-3.8-1.2-8.6-3.3-10.5-7.6c-0.3-0.7-0.5-1.3-0.6-1.8
				c-0.1-0.4-1.6-6.7,1.6-11.9c2.9-4.7,6.9-3.8,7.8-7.4c0.7-2.6-1.2-3.4-1.6-7.4c-0.4-4.1,0.9-9,4.1-12.3c3.4-3.5,7.9-4.1,11.1-4.5
				c8.1-1,10.1,2.3,14.8,1.2c6.5-1.5,6.6-9,14.8-21.8c8.6-13.4,12.7-11.9,18.9-23.8c3.7-7.1,5-13,7-22.2c4-18.1,1.2-21.8,6.2-32.1
				c2.7-5.7,6.4-13.2,14-16c7-2.6,11.1,1.1,18.5-2.9c1.2-0.6,7.6-4.1,8.6-10.3c0.4-2.6-0.3-4.6-1.6-8.6c-1.4-4.2-3.4-7.5-5.3-10.7
				c-2.4-4-2.8-4-3.7-6.2c-0.6-1.6-2.6-6.7-0.4-9.9c0.6-0.8,1-0.9,1.6-2.1c1.1-2,0.9-4,0.8-4.9c-0.2-2.2-0.3-6.9,0.4-9.5
				c1.6-5.9,8.7-4.7,11.1-10.7c2-5-2.1-8.4,0.4-11.9c2.7-3.9,9.7-3,11.1-2.9c0.5,0.1,9.2,1.2,10.3,5.8c0.9,3.6-3.8,6.3-2.5,9
				c1.1,2.3,4.7,1,7.4,4.1c1,1.1,0.7,1.5,2.5,6.6c2.2,6.4,2.7,5.8,2.9,7.8c0.4,3.9-1.3,6.2,0.4,8.6c0.7,1.1,1.1,0.8,1.6,1.6
				c1.4,2.2-0.4,5.9-5.8,14.8c-4.5,7.3-5.1,7.8-5.8,10.3c-0.5,1.7-1.9,6.8,0.4,11.9c2.9,6.5,10,8.9,14,10.3c7.6,2.6,9.6,0.3,14,2.9
				c6,3.5,7.6,11,9,17.3c1.8,8.1-0.3,8,0.8,25.5c0.7,11,1.5,11.4,1.2,18.1C698.1,464.8,697.5,466.7,698.7,469.5z"/>
			<path class="st44" d="M591.4,483.5c-7.3,9.6-12.3,11.2-22.2,21c-7.2,7.2-6.2,8-12.3,13.2c-8,6.8-14.4,9.3-14,10.3
				c0.5,1.2,9.6-3.5,24.7-6.2c13.4-2.4,20-1.2,27.9-7c3.2-2.4,5.2-4.8,7-7c2.1-2.6,8.1-10.6,10.3-22.2c1.5-8.1-0.9-6.8-2.1-31.6
				c-0.2-5.1-0.3-8.8-1.4-9c-2.4-0.4-7.6,15.5-8,16.8c-2,6.3-2.6,10-5.8,15.6C594.9,478.5,593.6,480.6,591.4,483.5z"/>
			<path class="st44" d="M684.7,482.7c-6.1-10.2-5-19-7-18.9c-2.7,0.1-6.3,16.7-1.6,32.5c1.6,5.4,4,13.4,11.1,18.5
				c5.5,3.9,9.1,2.6,22.6,4.9c18,3.1,26.5,7.8,27.5,5.9c1.2-2.3-10.1-10.7-16.8-15.7C698.8,493.8,691.3,493.6,684.7,482.7z"/>
			<g>
				<g>
					<path class="st45" d="M545.5,544.4c7.3-5.3,17-4.8,25.3-2.5c9.1,2.6,17.5,7.2,26.8,9.2c5.6,1.2,11.3,1.6,16.9,2.6
						c0.4,0.1,0.7-0.4,0.3-0.5c-5.1-0.9-10.3-1.4-15.5-2.4c-5.1-1-9.9-2.7-14.7-4.6c-8.5-3.4-17.3-7-26.6-6.5
						c-4.6,0.3-9.1,1.6-12.8,4.3C544.6,544.3,545.2,544.6,545.5,544.4L545.5,544.4z"/>
				</g>
			</g>
			<g>
				<g>
					<path class="st45" d="M632.4,553.1c-0.8-0.5-0.7-1.6-0.1-2.2c0.9-0.9,2.7-1.1,3.9-1.3c2.2-0.4,4.5-0.5,6.7-0.4
						c4.2,0.2,8,1.7,12,2.3c3.5,0.5,6.9-0.4,10.3-1.2c4.3-1,8.7-1.7,13.2-1.9c4.8-0.3,9.6-0.1,14.4,0.6c0.2,0,0.8-0.3,0.5-0.3
						c-9-1.2-18.2-0.8-27.1,1.2c-2.5,0.6-4.9,1.3-7.5,1.5c-2.6,0.2-5-0.5-7.5-1.2c-4.2-1.1-8.5-1.6-12.9-1.2
						c-1.9,0.2-4.1,0.4-5.8,1.3c-1.1,0.6-2,2.1-0.7,3C631.9,553.5,632.5,553.2,632.4,553.1L632.4,553.1z"/>
				</g>
			</g>
			<g>
				<g>
					<path class="st45" d="M741.5,538.3c-13.9-5.2-27.9,4.1-40.5,9c-7.2,2.8-14.5,5.1-21.9,6.9c-3.8,0.9-7.6,1.8-11.5,2.2
						c-4,0.3-7.9-0.1-11.9-0.5c-8.9-1-17.9-1.9-26.8-2.9c-0.3,0-0.8,0.4-0.3,0.5c7.9,0.8,15.9,1.7,23.8,2.5c3.9,0.4,7.7,1,11.6,1
						c3.5,0,7-0.5,10.5-1.3c7.2-1.5,14.4-3.6,21.3-6.1c7-2.5,13.6-5.6,20.4-8.4c7.8-3.2,16.5-5.6,24.7-2.5
						C741.3,538.9,741.9,538.5,741.5,538.3L741.5,538.3z"/>
				</g>
			</g>
			<g>
				<g>
					<path class="st45" d="M628.2,553.2c-4.4,0.1-8.8,0.1-13.2,0c-2.1-0.1-4.2-0.2-6.3-0.4c-2-0.2-4.1-0.5-6.2-0.6
						c-1,0-2,0.1-2.7,0.8c-1,1-1.3,2.7-1.5,4c-0.7,3.9-0.3,8,1.2,11.7c0.1,0.2,0.8-0.1,0.7-0.2c-1.2-3.1-1.8-6.4-1.5-9.7
						c0.2-1.6,0.4-3.6,1.2-5.1c1-2,4.4-1,6.3-0.9c7.2,0.6,14.3,0.8,21.5,0.6C627.9,553.5,628.6,553.2,628.2,553.2L628.2,553.2z"/>
				</g>
			</g>
			<path class="st46" d="M524.9,524.4c0.9-2,4.4-2,4.6-2c0.6,0,2,0,2.9,0.9c0.6,0.5,1.1,1.5,0.7,2.4c-0.4,0.7-1.5,1-3.8,1.5
				c-1.8,0.4-2.8,0.6-3.4,0.3C524.8,526.9,524.4,525.4,524.9,524.4z"/>
			<path class="st46" d="M752.9,519.4c-0.7,1.7-3.2,1.5-3.4,1.4c-0.5-0.1-1.4-0.2-2-1c-0.4-0.5-0.7-1.4-0.4-2.1
				c0.3-0.6,1.1-0.8,2.7-1.1c1.3-0.2,2-0.4,2.4,0C753,517.1,753.2,518.4,752.9,519.4z"/>
		</g>
		<circle class="st21" cx="726.7" cy="250.7" r="20.6"/>
		<circle class="st21" cx="705.2" cy="324.2" r="9.8"/>
		<path class="st21" d="M738.9,121.9c6,5.9-0.9,13.1,4.6,26.3c5.3,12.7,15,13,15.2,21.3c0.2,8.4-9.8,9.3-14.7,22.8
			c-4.2,11.4,1.1,15.6-3.4,22.2c-6.7,10-20,2.4-32.4,12.1c-10.1,8-5.3,16.2-18.2,34.4c-6.6,9.3-12.6,17.8-22.2,19.5
			c-11.9,2.2-15.1-8.6-32.2-10.9c-18.2-2.4-23.7,8.3-35.7,3.6c-12.5-5-9.2-18.3-22.8-24.2c-12.1-5.3-20,3-28.9-2.8
			c-7.7-5.1-3.4-12.6-10.6-28.4c-8.5-18.7-19.6-19.6-19.8-31.3c-0.1-8.9,6.3-9.4,15.2-26.3c11-20.8,6-28.9,16-36.3
			c8.9-6.6,14-0.9,29.6-7.8c16.7-7.4,15.8-16,28.1-18.5c13.3-2.6,16.5,7.1,34.2,7.1c18.8,0,22.1-11,35.7-8.5c15,2.7,14,16.6,31.9,22
			C723.5,122.9,732.5,115.6,738.9,121.9z"/>
		<rect x="565" y="132.2" class="st22" width="170.8" height="110.8"/>
		<text transform="matrix(1 0 0 1 565.0409 149.3884)"><tspan x="0" y="0" class="st23 st24 st25">Du bliver en del </tspan><tspan x="0" y="29.1" class="st23 st24 st25">af et kærligt og </tspan><tspan x="0" y="58.2" class="st23 st24 st25">rummeligt </tspan><tspan x="0" y="87.4" class="st23 st24 st25">fællesskab.</tspan></text>
		<rect x="535.5" y="610.2" class="st22" width="252.9" height="111.9"/>
		<text transform="matrix(1 0 0 1 535.4725 644.6887)" class="st23 st24 st47">Hjerterum</text>
		<circle class="st21" cx="735.8" cy="298.2" r="15.5"/>
	</g>
	<polygon class="st7" points="403.8,132.3 404.5,122.8 397.1,116.9 406.3,114.6 409.6,105.7 414.7,113.8 424.2,114.2 418.1,121.5 
		420.6,130.6 411.8,127.1 	"/>
	<polygon class="st7" points="295.2,308.4 286.9,304.8 279.2,309.7 280,300.6 273.1,294.8 281.9,292.8 285.3,284.4 289.9,292.2 
		298.9,292.8 293,299.6 	"/>
	<g class="st8">
		<circle class="st9" cx="494.6" cy="72.2" r="6.7"/>
		<circle class="st9" cx="490.4" cy="83.7" r="2.2"/>
		<circle class="st9" cx="500.2" cy="83.3" r="3.4"/>
	</g>
	<g class="st8">
		<circle class="st9" cx="480" cy="186.3" r="6.7"/>
		<circle class="st9" cx="484.4" cy="174.8" r="2.2"/>
		<circle class="st9" cx="474.6" cy="175" r="3.4"/>
	</g>
	<polygon class="st7" points="397.7,617.7 389.3,614.1 381.7,619 382.5,610 375.5,604.2 384.3,602.2 387.7,593.7 392.3,601.5 
		401.4,602.1 395.4,608.9 	"/>
	<g class="st8">
		<circle class="st9" cx="361.1" cy="353" r="6.7"/>
		<circle class="st9" cx="372.5" cy="357.9" r="2.2"/>
		<circle class="st9" cx="372.6" cy="348.1" r="3.4"/>
	</g>
	<g class="st8">
		<circle class="st9" cx="821.8" cy="659.8" r="5.2"/>
		<circle class="st9" cx="854" cy="639" r="5.2"/>
		<circle class="st9" cx="875.8" cy="671.8" r="5.2"/>
		<g>
			<circle class="st9" cx="829.3" cy="653.8" r="2.2"/>
			<circle class="st9" cx="834.6" cy="650.4" r="2.2"/>
			<circle class="st9" cx="840" cy="647" r="2.2"/>
			<circle class="st9" cx="845.3" cy="643.6" r="2.2"/>
		</g>
		<g>
			<circle class="st9" cx="870.1" cy="662.9" r="2.2"/>
			<circle class="st9" cx="866.7" cy="657.5" r="2.2"/>
			<circle class="st9" cx="863.3" cy="652.2" r="2.2"/>
			<circle class="st9" cx="859.9" cy="646.8" r="2.2"/>
		</g>
		<circle class="st9" cx="799.7" cy="628.4" r="5.2"/>
		<g>
			<circle class="st9" cx="805.4" cy="637.1" r="2.2"/>
			<circle class="st9" cx="808.8" cy="642.5" r="2.2"/>
			<circle class="st9" cx="812.2" cy="647.8" r="2.2"/>
			<circle class="st9" cx="815.7" cy="653.1" r="2.2"/>
		</g>
	</g>
	<path class="st7" d="M825,568.3c13.1-14.2,16.8-34.7,9.7-52.3c-6.7-16.5-22-28.2-39.9-30.4c24.9-10.3,53,3.2,60.4,27
		C862.2,535.1,849.1,560.7,825,568.3z"/>
	<path class="st7" d="M902.3,41.4c-4.8,3.6-18.9,15.2-24.6,36c-7,25,3.1,45.4,5.5,50c-26.5-4.7-42.9-31.2-36.3-55.3
		C853,49.4,877.9,34.8,902.3,41.4z"/>
	<path class="st7" d="M462.5,712.1c19.2,0.6,37.1-9.9,45.8-26.8c8.2-15.8,7.1-35-2.7-50c23.8,12,31.7,42.1,18.5,63.3
		C511.7,718.6,483.8,725.4,462.5,712.1z"/>
	<path class="st7" d="M243.3,363.8c-17.2,8.9-27.7,26.8-27.1,45.8c0.6,17.8,11,34,27.1,42.3c-26.9,1.2-48.6-21.2-47.5-46.1
		C196.9,382.3,218,362.7,243.3,363.8z"/>
	<polygon class="st7" points="149.9,224.1 150.6,214.6 143.1,208.7 152.4,206.4 155.7,197.5 160.8,205.6 170.3,206 164.1,213.3 
		166.7,222.5 157.9,218.9 	"/>
	<g class="st8">
		<circle class="st9" cx="193.2" cy="87.4" r="6.7"/>
		<circle class="st9" cx="204.6" cy="92.3" r="2.2"/>
		<circle class="st9" cx="204.7" cy="82.5" r="3.4"/>
	</g>
	<g>
		<g>
			<path class="st48" d="M313.9,708.3c-0.9-0.8-2.5-2.5-3.6-5.1c-0.9-2.3-1.1-4.3-1.1-5.5c0.9,0.7,2.1,1.8,3.1,3.5
				C314,704.2,314,707.1,313.9,708.3z"/>
			<path class="st40" d="M322.8,711.5c-1.1,0.1-3.2,0.2-5.6-0.9c-1.5-0.7-2.6-1.6-3.3-2.3c0-1.4-0.1-3.8-1.3-6.5
				c-1-2.3-2.3-3.9-3.3-4.8c0.1-0.5,0.2-1.1,0.4-1.6c0.9,0.4,2.3,1,3.9,1.7c2.5,1.2,4.7,2.2,5.9,3.3
				C320.4,701,323.4,703.7,322.8,711.5z"/>
			<path class="st38" d="M322.7,711.5c0.1-0.9,0.1-2.1-0.1-3.6c-0.2-1.5-0.4-3.6-1.5-5.4c-1.2-2.2-3.1-3.2-6.3-4.9
				c-2.1-1.1-3.9-1.9-5.1-2.3c0.2-0.9,0.5-1.9,1.1-3.1c0.6-1.2,1.2-2.1,1.7-2.8c1.2,0.5,2.8,1.2,4.7,2.3c2.6,1.5,3.9,2.3,5,3.6
				c1.8,2.2,1.9,4.7,2.2,9.2c0.2,2.8,0,5.2-0.1,6.7C323.9,711.4,323.3,711.4,322.7,711.5z"/>
			<path class="st49" d="M333.9,706.4c-1,0.9-2.5,2-4.3,3c-2,1-3.8,1.6-5.2,1.9c0.2-1.8,0.3-4.1,0.1-6.7c-0.3-4.5-0.4-7-2.2-9.2
				c-0.8-1-2.1-1.8-4.7-3.5c-1.9-1.2-3.5-2.1-4.7-2.6c0.4-0.4,0.9-0.9,1.3-1.3c1.4-0.1,3.4-0.1,5.8,0.4c2.1,0.4,4.1,0.9,5.9,2.3
				c2.2,1.7,2.4,3.5,4.7,9C331.9,702.5,333.1,704.7,333.9,706.4z"/>
			<path class="st50" d="M333.9,706.4c-1.6-2.9-2.7-5.4-3.4-7c-2.2-5.1-2.4-7-4.6-8.6c-1.4-1.1-2.9-1.5-5.3-2.2
				c-2.6-0.7-4.8-0.9-6.4-1c0.4-0.5,1-1.2,1.9-1.9c0.9-0.7,1.8-1,2.4-1.2c1.3,0.3,3.2,0.8,5.3,2c0.5,0.3,2.4,1.4,4.8,3.8
				c2.6,2.6,2.8,3.8,4.9,6.3c1.3,1.5,3.2,3.6,6.3,5.6C337.9,703.6,335.9,705,333.9,706.4z"/>
			<path class="st49" d="M343.7,698.7c-1.2,1.1-2.4,2.2-3.6,3.2c-1.3-0.7-3.1-1.9-5-3.8c-2.2-2.2-2.3-3.2-4.9-6.1
				c-1.6-1.8-3.1-3.5-5.6-5c-2.4-1.5-4.6-2.1-6.1-2.5c0.8-0.6,2.1-1.5,3.9-2.1c1.5-0.5,2.8-0.5,3.7-0.5c2.2,1.7,3.8,3.4,5,4.7
				c3.3,3.6,4,5.6,7,8.3C340.2,696.8,342.2,697.9,343.7,698.7z"/>
			<path class="st38" d="M345.9,691.5c0.2,0.6,0.4,1.7,0.2,3c-0.3,2.2-1.7,3.5-2.2,3.9c-1.4-0.6-3.5-1.6-5.7-3.5
				c-3-2.6-3.7-4.7-7-8.3c-1.1-1.2-2.9-3-5.5-4.9c0.8-0.1,1.8-0.2,2.8-0.1c1.1,0,2,0.1,2.9,0.3c0.7,1.4,2.3,4,5.1,6.1
				C340.3,690.9,344.2,691.4,345.9,691.5z"/>
			<path class="st40" d="M345.8,691.2c-2.2-0.2-8.1-1.2-12.2-6c-0.9-1.1-1.6-2.2-2.1-3.3c2.7,0.4,4.9,1.3,6.3,1.9
				c1.6,0.7,3.4,1.6,5.2,3.4C344.4,688.7,345.3,690.2,345.8,691.2z"/>
		</g>
		<g>
			<path class="st51" d="M346.2,693.1c0.2,3.9-3.8,7-8.3,10.6c-5.2,4-12.8,10.1-20.4,7.1c-4.4-1.7-7.9-6.2-8.5-11
				c-1-8.3,6.8-15.5,14-17.4C333.5,679.5,345.9,686.5,346.2,693.1z"/>
			<path class="st51" d="M309.4,695.2c0.9,0.4,2.2,0.9,3.8,1.6c1.8,0.8,4.5,2.1,5.6,2.8c1,0.7,4.1,3.1,4.1,11.9"/>
			<path class="st51" d="M309,697.2c0.9,0.8,2.6,2.3,3.7,4.9c1.3,2.8,1.2,5.3,1.1,6.5"/>
			<path class="st51" d="M312.4,689.3c1.4,0.6,3.3,1.4,5.6,2.8c1.7,1,3,1.9,3.3,2.2c4.4,3.4,3.1,15.3,2.9,17.1"/>
			<path class="st51" d="M313.6,688c9-0.1,12.6,2.3,14.2,4.6c1.3,1.9,1.5,4.2,4.3,10.2c0.8,1.6,1.5,2.9,2,3.8"/>
			<path class="st51" d="M318.2,684.4c5.1,1.2,8,3.3,9.7,5c2.5,2.5,3.2,4.8,6.6,8.1c2.2,2.1,4.2,3.5,5.6,4.4"/>
			<path class="st51" d="M326,681.8c3.7,3,6.2,5.8,7.8,7.9c1.5,2,2.9,4.1,5.7,6.4c1.6,1.3,3.2,2.1,4.2,2.7"/>
			<path class="st51" d="M331.2,681.9c0.8,1.5,2.4,4,5.3,6.1c3.8,2.8,7.6,3.3,9.3,3.5"/>
		</g>
	</g>
	<g>
		<g class="st52">
			<path class="st38" d="M131.4,319.9c4.4,6.5,8.8,13,13.1,19.5c4.3-4.7,8.6-9.5,12.9-14.2v-28.5l-11.2-14h-3.1l-11.7,11V319.9z"/>
			<polyline class="st38" points="131.4,319.9 138.8,328 153.9,328 154.8,305.8 151.1,302.5 154.1,298.4 146.8,283.5 			"/>
			<polyline class="st38" points="146.2,282.7 137,297.2 131.4,293.7 			"/>
			<path class="st38" d="M137,297.2c0.9,2,1.9,4.1,2.8,6.1c-0.3,8.2-0.7,16.5-1,24.7c1.9,3.8,3.8,7.6,5.7,11.4"/>
			<polyline class="st38" points="139.8,303.3 151.1,302.5 154.7,305.7 157.4,301.1 154.1,298.3 			"/>
		</g>
		<g class="st52">
			<path class="st53" d="M131.4,320c4.4,6.5,8.8,13,13.1,19.5c4.3-4.7,8.6-9.5,12.9-14.2v-28.5l-11.2-14h-3.1l-11.7,11V320z"/>
			<polyline class="st53" points="131.4,320 138.8,328.1 154,328.1 154.8,305.9 151.2,302.6 154.1,298.4 146.9,283.6 			"/>
			<polyline class="st53" points="146.2,282.8 137,297.3 131.4,293.8 			"/>
			<path class="st53" d="M137,297.3c0.9,2,1.9,4.1,2.8,6.1c-0.3,8.2-0.7,16.5-1,24.7c1.9,3.8,3.8,7.6,5.7,11.4"/>
			<polyline class="st53" points="139.8,303.4 151.2,302.6 154.8,305.8 157.4,301.2 154.1,298.4 			"/>
		</g>
	</g>
	<g>
		<g class="st52">
			<polygon class="st54" points="1068.2,664.8 1064.9,698.7 1077.4,716.3 1094.4,698.4 1094.2,668.7 1082.6,653.1 			"/>
			<polygon class="st54" points="1082.6,653.1 1089,675.9 1085,680.3 1073.8,679.2 1070,673.9 			"/>
			<polyline class="st54" points="1085.4,680.3 1083.9,701 1081.2,704 1074.8,703.3 1070.2,699.6 1073.3,679.2 			"/>
			<path class="st54" d="M1089,675.9l1.9,3.4l-0.5,5.6l-6,11.6l0.8-11.7c1.9-1.8,3.8-3.6,5.8-5.4"/>
			<line class="st54" x1="1094.2" y1="668.7" x2="1089" y2="675.3"/>
			<path class="st54" d="M1070,673.9c-0.6-3-1.2-6-1.8-9.1"/>
			<path class="st54" d="M1094.4,698.4l-10,2.5l-7,15.3l3.8-12.3l-6.5-0.6c0.5,3.1,1.1,6.2,1.6,9.3c-2.1-4.3-4.1-8.7-6.2-13
				c-1.8-0.3-3.5-0.7-5.3-1"/>
			<path class="st54" d="M1090.9,679.3c0.3-2.5,0.6-5,0.8-7.5"/>
		</g>
		<g>
			<polygon class="st55" points="1068.2,664.8 1064.9,698.7 1077.4,716.3 1094.4,698.4 1094.2,668.7 1082.6,653.1 			"/>
			<polygon class="st55" points="1082.6,653.1 1089,675.9 1085,680.3 1073.8,679.2 1070,673.9 			"/>
			<polyline class="st55" points="1085.4,680.3 1083.9,701 1081.2,704 1074.8,703.3 1070.2,699.6 1073.3,679.2 			"/>
			<path class="st55" d="M1089,675.9l1.9,3.4l-0.5,5.6l-6,11.6l0.8-11.7c1.9-1.8,3.8-3.6,5.8-5.4"/>
			<line class="st55" x1="1094.2" y1="668.7" x2="1089" y2="675.3"/>
			<path class="st55" d="M1070,673.9c-0.6-3-1.2-6-1.8-9.1"/>
			<path class="st55" d="M1094.4,698.4l-10,2.5l-7,15.3l3.8-12.3l-6.5-0.6c0.5,3.1,1.1,6.2,1.6,9.3c-2.1-4.3-4.1-8.7-6.2-13
				c-1.8-0.3-3.5-0.7-5.3-1"/>
			<path class="st55" d="M1090.9,679.3c0.3-2.5,0.6-5,0.8-7.5"/>
		</g>
	</g>
	<g>
		<g>
			<path class="st56" d="M290.9,707.9c0.6-0.6,1.7-1.7,2.4-3.4c0.6-1.5,0.7-2.9,0.7-3.7c-0.6,0.5-1.4,1.2-2.1,2.4
				C290.9,705.1,290.9,707.1,290.9,707.9z"/>
			<path class="st57" d="M284.9,710c0.7,0.1,2.2,0.1,3.8-0.6c1-0.5,1.8-1.1,2.2-1.5c0-0.9,0.1-2.6,0.9-4.4c0.7-1.6,1.6-2.6,2.2-3.3
				c-0.1-0.4-0.2-0.7-0.2-1.1c-0.6,0.3-1.6,0.6-2.6,1.2c-1.7,0.8-3.1,1.5-4,2.2C286.6,702.9,284.6,704.8,284.9,710z"/>
			<path class="st58" d="M285,710c0-0.6-0.1-1.4,0.1-2.4c0.1-1,0.3-2.4,1-3.6c0.8-1.5,2.1-2.1,4.2-3.3c1.4-0.8,2.6-1.3,3.5-1.6
				c-0.1-0.6-0.4-1.3-0.7-2.1c-0.4-0.8-0.8-1.4-1.2-1.9c-0.8,0.3-1.9,0.8-3.2,1.5c-1.8,1-2.6,1.5-3.4,2.4c-1.2,1.5-1.3,3.1-1.5,6.2
				c-0.1,1.9,0,3.5,0.1,4.5C284.3,709.9,284.7,710,285,710z"/>
			<path class="st59" d="M277.5,706.6c0.7,0.6,1.7,1.4,2.9,2c1.3,0.7,2.6,1.1,3.5,1.3c-0.1-1.2-0.2-2.7-0.1-4.5
				c0.2-3.1,0.3-4.7,1.5-6.2c0.5-0.7,1.4-1.2,3.2-2.3c1.3-0.8,2.4-1.4,3.2-1.8c-0.3-0.3-0.6-0.6-0.9-0.9c-1-0.1-2.3,0-3.9,0.3
				c-1.4,0.3-2.8,0.6-4,1.5c-1.5,1.1-1.6,2.4-3.2,6C278.8,704,278.1,705.5,277.5,706.6z"/>
			<path class="st54" d="M277.5,706.6c1.1-2,1.8-3.6,2.3-4.7c1.5-3.4,1.6-4.7,3.1-5.8c1-0.7,1.9-1,3.5-1.5c1.7-0.5,3.2-0.6,4.3-0.7
				c-0.2-0.3-0.7-0.8-1.3-1.3c-0.6-0.4-1.2-0.7-1.6-0.8c-0.9,0.2-2.2,0.6-3.6,1.3c-0.3,0.2-1.6,0.9-3.2,2.5
				c-1.7,1.7-1.9,2.6-3.3,4.2c-0.8,1-2.2,2.4-4.2,3.7C274.8,704.7,276.2,705.6,277.5,706.6z"/>
			<path class="st58" d="M270.9,701.4c0.8,0.7,1.6,1.4,2.4,2.2c0.8-0.5,2.1-1.3,3.4-2.5c1.5-1.5,1.5-2.1,3.3-4.1
				c1.1-1.2,2.1-2.4,3.7-3.4c1.6-1,3.1-1.4,4.1-1.7c-0.5-0.4-1.4-1-2.6-1.4c-1-0.3-1.9-0.4-2.5-0.4c-1.5,1.2-2.6,2.3-3.4,3.2
				c-2.2,2.4-2.7,3.8-4.7,5.6C273.3,700.1,272,700.9,270.9,701.4z"/>
			<path class="st57" d="M269.4,696.6c-0.1,0.4-0.3,1.1-0.1,2c0.2,1.5,1.1,2.4,1.5,2.6c0.9-0.4,2.4-1.1,3.9-2.3
				c2-1.7,2.5-3.2,4.7-5.6c0.8-0.8,2-2,3.7-3.3c-0.6-0.1-1.2-0.1-1.9-0.1c-0.7,0-1.4,0.1-1.9,0.2c-0.5,1-1.5,2.7-3.4,4.1
				C273.2,696.2,270.6,696.5,269.4,696.6z"/>
			<path class="st56" d="M269.5,696.4c1.5-0.2,5.4-0.8,8.2-4.1c0.6-0.7,1.1-1.5,1.4-2.2c-1.8,0.3-3.3,0.9-4.3,1.3
				c-1,0.5-2.3,1.1-3.5,2.3C270.4,694.7,269.9,695.7,269.5,696.4z"/>
		</g>
		<g>
			<path class="st60" d="M269.2,697.7c-0.1,2.6,2.5,4.7,5.6,7.1c3.5,2.7,8.6,6.8,13.7,4.8c3-1.2,5.3-4.2,5.7-7.4
				c0.7-5.6-4.6-10.4-9.4-11.7C277.8,688.5,269.5,693.2,269.2,697.7z"/>
			<path class="st60" d="M294,699c-0.6,0.2-1.5,0.6-2.5,1.1c-1.2,0.5-3,1.4-3.8,1.9c-0.7,0.4-2.7,2.1-2.8,8"/>
			<path class="st60" d="M294.2,700.4c-0.6,0.5-1.7,1.6-2.5,3.3c-0.8,1.9-0.8,3.6-0.8,4.4"/>
			<path class="st60" d="M292,695.1c-0.9,0.4-2.2,1-3.8,1.9c-1.1,0.7-2,1.3-2.2,1.5c-3,2.3-2.1,10.3-1.9,11.5"/>
			<path class="st60" d="M291.2,694.2c-6.1-0.1-8.5,1.5-9.5,3.1c-0.8,1.3-1,2.9-2.9,6.8c-0.5,1.1-1,2-1.3,2.6"/>
			<path class="st60" d="M288.1,691.8c-3.4,0.8-5.4,2.2-6.6,3.4c-1.7,1.7-2.1,3.2-4.4,5.5c-1.5,1.4-2.8,2.4-3.8,2.9"/>
			<path class="st60" d="M282.8,690c-2.5,2-4.1,3.9-5.2,5.3c-1,1.3-2,2.8-3.8,4.3c-1.1,0.9-2.1,1.4-2.8,1.8"/>
			<path class="st60" d="M279.3,690.1c-0.5,1-1.6,2.7-3.6,4.1c-2.5,1.9-5.1,2.3-6.3,2.4"/>
		</g>
	</g>
	<g class="st8">
		<circle class="st9" cx="207.8" cy="615.1" r="6.7"/>
		<circle class="st9" cx="219.1" cy="619.9" r="2.2"/>
		<circle class="st9" cx="219.2" cy="610.1" r="3.4"/>
	</g>
	<polygon class="st7" points="171.2,690.4 162.9,686.8 155.2,691.7 156.1,682.6 149.1,676.8 157.9,674.8 161.3,666.4 165.9,674.2 
		175,674.8 169,681.6 	"/>
	<g>
		<g>
			<g>
				<path class="st5" d="M515,387.9c2.4,1.2,5.5-0.8,6.3-1.3c7.5-4.8,5.7-20.1,5.4-22.4c-2,1.2-15.1,9.5-14.3,18.2
					C512.5,383.5,512.8,386.8,515,387.9z"/>
				<path class="st6" d="M515,387.9c2.4,1.2,5.5-0.8,6.3-1.3c7.5-4.8,5.7-20.1,5.4-22.4c-2,1.2-15.1,9.5-14.3,18.2
					C512.5,383.5,512.8,386.8,515,387.9z"/>
			</g>
			<path class="st6" d="M515.5,388.2c-3.1,9.6-5.8,20.8-7.2,33.3c-4.6,39.3,5.4,71.7,13.2,90.7"/>
			<g>
				<path class="st5" d="M509.7,413.2c0.8,2.9,4.8,3.9,5.8,4.2c9.7,2.6,21-10.6,22.7-12.5c-2.6-0.7-19.4-5.4-26,2
					C511.5,407.7,508.9,410.5,509.7,413.2z"/>
				<path class="st6" d="M509.7,413.2c0.8,2.9,4.8,3.9,5.8,4.2c9.7,2.6,21-10.6,22.7-12.5c-2.6-0.7-19.4-5.4-26,2
					C511.5,407.7,508.9,410.5,509.7,413.2z"/>
			</g>
			<g>
				<path class="st5" d="M508.2,413.9c2.2-2,1.3-6.1,1.1-7.1c-2.1-9.8-19-13.9-21.5-14.5c0.5,2.6,4,19.7,13.6,22.2
					C502.5,414.9,506.2,415.8,508.2,413.9z"/>
				<path class="st6" d="M508.2,413.9c2.2-2,1.3-6.1,1.1-7.1c-2.1-9.8-19-13.9-21.5-14.5c0.5,2.6,4,19.7,13.6,22.2
					C502.5,414.9,506.2,415.8,508.2,413.9z"/>
			</g>
			<g>
				<path class="st5" d="M507.4,450.9c1.3,2.7,5.5,2.9,6.5,3c10,0.6,18.6-14.5,19.8-16.7c-2.7-0.2-20-1.5-25.1,7
					C508,445.2,506.1,448.4,507.4,450.9z"/>
				<path class="st6" d="M507.4,450.9c1.3,2.7,5.5,2.9,6.5,3c10,0.6,18.6-14.5,19.8-16.7c-2.7-0.2-20-1.5-25.1,7
					C508,445.2,506.1,448.4,507.4,450.9z"/>
			</g>
			<g>
				<path class="st5" d="M506.1,451.9c1.7-2.4,0.1-6.2-0.3-7.2c-4-9.2-21.3-10-23.9-10c1,2.5,7.8,18.5,17.7,19.2
					C500.6,454,504.4,454.2,506.1,451.9z"/>
				<path class="st6" d="M506.1,451.9c1.7-2.4,0.1-6.2-0.3-7.2c-4-9.2-21.3-10-23.9-10c1,2.5,7.8,18.5,17.7,19.2
					C500.6,454,504.4,454.2,506.1,451.9z"/>
			</g>
			<g>
				<path class="st5" d="M513.3,486.2c2,2.2,6,1.4,7.1,1.2c9.8-1.9,14.3-18.7,14.9-21.2c-2.6,0.5-19.8,3.6-22.5,13.1
					C512.5,480.4,511.5,484.1,513.3,486.2z"/>
				<path class="st6" d="M513.3,486.2c2,2.2,6,1.4,7.1,1.2c9.8-1.9,14.3-18.7,14.9-21.2c-2.6,0.5-19.8,3.6-22.5,13.1
					C512.5,480.4,511.5,484.1,513.3,486.2z"/>
			</g>
			<g>
				<path class="st5" d="M512.3,487.5c1.1-2.8-1.5-6-2.1-6.9c-6.2-7.9-23.2-4.2-25.7-3.6c1.6,2.1,12.2,16,22,14.1
					C507.6,490.8,511.3,490.1,512.3,487.5z"/>
				<path class="st6" d="M512.3,487.5c1.1-2.8-1.5-6-2.1-6.9c-6.2-7.9-23.2-4.2-25.7-3.6c1.6,2.1,12.2,16,22,14.1
					C507.6,490.8,511.3,490.1,512.3,487.5z"/>
			</g>
		</g>
		<path class="st6" d="M521.2,374.6c-1,1.4-1.9,3.1-2.9,5.1c-1.5,3.2-2.4,6.1-2.9,8.6"/>
		<path class="st6" d="M496.3,402.9c1.1,1.2,2.5,2.6,4.4,3.8c3.5,2.4,6.8,3.3,9,3.7"/>
		<path class="st6" d="M524.4,409.8c-1,0.3-2.1,0.6-3.3,0.8c-4.4,0.8-8.3,0.4-11.2-0.1"/>
		<path class="st6" d="M492.6,444.3c1.1,0.9,2.7,1.9,4.6,2.8c4,1.7,7.6,1.7,9.6,1.5"/>
		<path class="st6" d="M521,444.5c-0.9,0.5-1.9,1.1-3,1.5c-4.1,1.8-7.9,2.4-10.9,2.5"/>
		<path class="st6" d="M496.5,483.1c1.8,0.7,4.6,1.5,8,1.8c3.3,0.2,6-0.2,7.9-0.7"/>
		<path class="st6" d="M524.6,477.6c-1,1-2.3,2.2-4,3.3c-3.1,2-6,2.8-8,3.2"/>
	</g>
</g>
</svg>
