<?xml version="1.0" encoding="utf-8"?>
<!-- Generator: Adobe Illustrator 27.8.1, SVG Export Plug-In . SVG Version: 6.00 Build 0)  -->
<svg version="1.1" id="Lag_1" xmlns="http://www.w3.org/2000/svg" xmlns:xlink="http://www.w3.org/1999/xlink" x="0px" y="0px"
	 viewBox="0 0 268.11 136.21" style="enable-background:new 0 0 268.11 136.21;" xml:space="preserve">
<style type="text/css">
	.st0{enable-background:new    ;}
	.st1{fill:#587C43;}
	.st2{fill:#CF732C;}
</style>
<g>
	<g class="st0">
		<path class="st1" d="M41.5,59.44c-4.65,0.45-5.1,0.73-5.1,5.43v22.45c0,4.7,0.5,4.87,5.1,5.38v1.57H26.49V92.7
			c4.65-0.56,5.1-0.67,5.1-5.38v-11.2H12.43v11.2c0,4.65,0.45,4.82,5.04,5.38v1.57H2.52V92.7c4.54-0.5,5.04-0.67,5.04-5.38V64.87
			c0-4.7-0.5-4.98-5.04-5.43v-1.57h14.95v1.57c-4.48,0.39-5.04,0.78-5.04,5.43v8.9h19.15v-8.9c0-4.65-0.62-5.04-5.1-5.43v-1.57H41.5
			V59.44z"/>
	</g>
</g>
<g>
	<g class="st0">
		<path class="st1" d="M45.81,71.09c3.02-0.45,5.82-1.18,8.23-2.18c0,2.52,0,5.04,0,7.62v11.59c0,3.75-0.22,6.1-1.29,9.13
			c-1.96,5.6-5.43,9.8-6.72,10.92c-0.56,0.45-1.01,0.62-1.46,0.62c-0.84,0-2.07-1.18-2.07-2.52c0-0.73,0.22-1.06,0.9-1.29
			c2.07-0.56,3.53-1.12,4.31-2.13c0.67-0.78,1.12-2.02,1.46-3.92c0.34-2.35,0.45-5.71,0.45-10.86V76.97c0-3.75-0.28-3.98-3.81-4.48
			V71.09z M51.58,63.3c-1.57,0-2.86-1.34-2.86-2.86c0-1.74,1.29-2.97,2.91-2.97c1.51,0,2.74,1.23,2.74,2.97
			C54.38,61.96,53.14,63.3,51.58,63.3z"/>
		<path class="st1" d="M82.43,89.51c-3.58,4.48-7.5,5.43-9.3,5.43c-6.83,0-10.98-5.6-10.98-12.04c0-3.81,1.34-7.34,3.64-9.8
			c2.35-2.63,5.43-4.09,8.34-4.09c4.87,0,8.57,4.2,8.57,8.68c-0.06,1.12-0.22,1.62-1.12,1.85c-1.12,0.22-8.29,0.73-14.95,0.95
			c-0.17,7.5,4.42,10.58,8.4,10.58c2.3,0,4.42-0.95,6.5-2.86L82.43,89.51z M72.8,71.14c-2.58,0-5.1,2.41-5.88,6.94
			c3.14,0,6.27,0,9.58-0.17c1.01,0,1.34-0.28,1.34-1.12C77.9,73.83,75.94,71.14,72.8,71.14z"/>
	</g>
</g>
<g>
	<g class="st0">
		<path class="st1" d="M101.08,94.27H88.2V92.7c3.53-0.34,3.86-0.62,3.86-4.26V76.8c0-3.7-0.22-3.86-3.47-4.26v-1.4
			c2.74-0.45,5.26-1.12,7.9-2.3c0,1.85,0,4.31,0,6.16c1.96-2.91,4.31-5.99,7.11-5.99c2.07,0,3.25,1.29,3.25,2.69
			c0,1.29-0.9,2.52-1.9,3.08c-0.56,0.34-1.01,0.28-1.46-0.11c-0.84-0.84-1.51-1.4-2.52-1.4c-1.18,0-3.25,1.74-4.48,4.59v10.53
			c0,3.7,0.28,3.98,4.59,4.31V94.27z"/>
	</g>
</g>
<g>
	<g class="st0">
		<path class="st1" d="M123.03,94.21c-0.95,0.5-1.85,0.73-2.41,0.73c-3.58,0-5.49-2.18-5.49-6.66v-16.3h-3.86l-0.22-0.67l1.51-1.62
			h2.58v-4.7c1.06-1.12,2.69-2.58,3.75-3.7l0.84,0.11c-0.11,2.35-0.17,5.6-0.17,8.29h6.38c0.5,0.56,0.34,1.79-0.34,2.3h-6.05v14.34
			c0,4.54,1.79,5.38,3.25,5.38c1.34,0,2.63-0.5,3.42-0.9l0.5,1.46L123.03,94.21z"/>
	</g>
</g>
<g>
	<g class="st0">
		<path class="st1" d="M150.58,89.51c-3.58,4.48-7.5,5.43-9.3,5.43c-6.83,0-10.98-5.6-10.98-12.04c0-3.81,1.34-7.34,3.64-9.8
			c2.35-2.63,5.43-4.09,8.34-4.09c4.87,0,8.57,4.2,8.57,8.68c-0.06,1.12-0.22,1.62-1.12,1.85c-1.12,0.22-8.29,0.73-14.95,0.95
			c-0.17,7.5,4.42,10.58,8.4,10.58c2.3,0,4.42-0.95,6.5-2.86L150.58,89.51z M140.95,71.14c-2.58,0-5.1,2.41-5.88,6.94
			c3.14,0,6.27,0,9.58-0.17c1.01,0,1.34-0.28,1.34-1.12C146.04,73.83,144.08,71.14,140.95,71.14z"/>
	</g>
</g>
<g>
	<g class="st0">
		<path class="st1" d="M169.01,94.27h-12.88V92.7c3.53-0.34,3.86-0.62,3.86-4.26V76.8c0-3.7-0.22-3.86-3.47-4.26v-1.4
			c2.74-0.45,5.26-1.12,7.9-2.3c0,1.85,0,4.31,0,6.16c1.96-2.91,4.31-5.99,7.11-5.99c2.07,0,3.25,1.29,3.25,2.69
			c0,1.29-0.9,2.52-1.9,3.08c-0.56,0.34-1.01,0.28-1.46-0.11c-0.84-0.84-1.51-1.4-2.52-1.4c-1.18,0-3.25,1.74-4.48,4.59v10.53
			c0,3.7,0.28,3.98,4.59,4.31V94.27z"/>
	</g>
</g>
<g>
	<g class="st0">
		<path class="st1" d="M206.69,92.98c-2.69,0.39-5.71,1.12-8.57,1.96c0-0.9,0-2.91,0-4.31c-3.02,2.52-5.49,4.31-8.57,4.31
			c-3.75,0-7-2.3-7-8.4V75.68c0-3.02-0.45-3.36-1.85-3.64l-1.57-0.28V70.3c2.41-0.11,6.1-0.67,8.01-1.01
			c-0.17,1.79-0.17,4.48-0.17,8.18v7.62c0,4.93,2.58,6.33,5.1,6.33c2.07,0,4.14-0.9,6.05-2.69V75.68c0-3.02-0.67-3.42-2.58-3.7
			l-1.79-0.22V70.3c3.58-0.17,7.5-0.78,8.79-1.01v18.76c0,2.8,0.45,3.19,2.58,3.3l1.57,0.06V92.98z"/>
		<path class="st1" d="M241.92,94.27V92.7c3.3-0.34,3.7-0.56,3.7-4.48v-9.35c0-3.98-1.34-6.5-4.82-6.5c-2.13,0-4.09,1.18-6.22,2.91
			c0.06,0.67,0.17,1.34,0.17,2.41v10.86c0,3.53,0.5,3.81,3.58,4.14v1.57h-11.98V92.7c3.47-0.34,3.98-0.56,3.98-4.26v-9.63
			c0-4.14-1.29-6.44-4.7-6.44c-2.24,0-4.42,1.51-6.16,2.91v13.16c0,3.7,0.39,3.92,3.58,4.26v1.57H211V92.7
			c3.7-0.34,4.03-0.56,4.03-4.26V76.85c0-3.58-0.22-3.81-3.36-4.37v-1.4c2.63-0.39,5.26-1.12,7.78-2.24c0,1.34,0,3.19,0,4.54
			c1.18-0.9,2.35-1.85,4.14-2.91c1.4-0.9,2.63-1.46,4.42-1.46c2.69,0,4.98,1.68,6.1,4.59c1.57-1.23,3.02-2.18,4.42-3.14
			c1.23-0.78,2.8-1.46,4.42-1.46c4.37,0,7.06,3.14,7.06,8.62v10.81c0,3.75,0.34,3.92,3.53,4.26v1.57H241.92z"/>
	</g>
</g>
<path class="st2" d="M169.22,58.67c-4.28-11.23-6.89-24.17-3.3-35.96c3.17-10.39,12.1-18.76,23.23-19.48s19.97,6.89,23.7,16.79
	c1,2.65,1.67,5.45,1.88,8.28c0.2,2.65,0.44,6.28-1.03,8.63c-0.45,0.72-1.46,1.62-2.39,1.12s-0.8-2.7-0.84-3.66
	c-0.14-2.79,0.11-5.6,0.72-8.33c2.31-10.29,9.71-20.13,20.39-22.53s21.03,2.59,26.58,11.27c3.57,5.57,5.22,11.81,6.14,18.31
	s1.04,13.67,0.47,20.48c-0.8,9.71-2.98,19.3-6.28,28.46c-6.78,18.8-18.56,35.62-33.44,48.91c-1.05,0.94-2.12,1.86-3.2,2.76
	c-1.48,1.24,0.65,3.35,2.12,2.12c15.65-13.1,28.16-29.9,35.82-48.84c4.11-10.16,6.76-20.88,7.83-31.78
	c0.71-7.25,0.67-14.57-0.28-21.79s-2.61-13.76-6.38-19.79c-6.15-9.86-18.03-15.38-29.52-13.13s-20.04,12.64-22.89,23.7
	c-0.76,2.96-1.16,6.04-1.12,9.09c0.03,2.62-0.05,6.48,2.89,7.59s5.62-1.18,6.61-3.83c1.1-2.92,1.03-6.44,0.72-9.5
	c-1.17-11.53-8.64-23.13-20.19-26.45s-23.12,2.04-29.75,11.14c-7.89,10.84-7.5,25.53-4.35,37.96c0.8,3.14,1.8,6.23,2.95,9.25
	c0.68,1.79,3.58,1.01,2.89-0.8l0,0L169.22,58.67z"/>
</svg>
